<svg width="120" height="45" viewBox="0 0 120 45" fill="none" xmlns="http://www.w3.org/2000/svg">
<path d="M60.4377 43.0971C60.253 43.0014 60.1045 42.8782 59.9919 42.7253C59.8791 42.5718 59.792 42.4067 59.7316 42.2273C59.6715 42.0486 59.6394 41.8613 59.6366 41.6682C59.6302 41.4516 59.6506 41.2498 59.6977 41.063C59.7456 40.876 59.8167 40.6971 59.9099 40.5271C60.0039 40.3576 60.13 40.2062 60.289 40.0752C60.4479 39.9434 60.6275 39.8487 60.8277 39.7914C60.9075 39.7726 60.9979 39.7632 61.0995 39.7632H61.1999C61.2508 39.7632 61.2873 39.7647 61.3099 39.7685C61.3318 39.7723 61.356 39.7734 61.3818 39.7734C61.4826 39.7769 61.5649 39.781 61.6271 39.7879C61.689 39.7942 61.7707 39.8146 61.8726 39.8497C61.9743 39.8841 62.0749 39.9355 62.1732 40.0024C62.3959 40.1551 62.5607 40.347 62.6669 40.5788C62.7731 40.8106 62.8248 41.0506 62.8213 41.3C62.8182 41.5491 62.7751 41.7886 62.6929 42.0173C62.6325 42.182 62.5523 42.3385 62.4524 42.4866C62.352 42.6337 62.2341 42.7678 62.097 42.8869C61.9597 43.0055 61.8031 43.0986 61.6245 43.1655C61.4465 43.2325 61.2605 43.2617 61.0669 43.2559C60.8321 43.2449 60.6224 43.1922 60.4377 43.0971ZM61.6609 42.3782C61.8372 42.2222 61.9699 42.0247 62.0591 41.7873C62.1579 41.5201 62.1809 41.2794 62.1281 41.063C62.0754 40.847 61.9666 40.6821 61.8016 40.5676C61.76 40.5396 61.7262 40.5182 61.6992 40.5032C61.6724 40.4887 61.6406 40.476 61.6039 40.4627C61.5675 40.4503 61.53 40.4424 61.4923 40.4393C61.4539 40.4358 61.4238 40.434 61.4016 40.434C61.3795 40.434 61.3512 40.433 61.3158 40.4294C61.2804 40.4263 61.2554 40.4225 61.2394 40.4174C61.2233 40.4124 61.1928 40.4101 61.1492 40.4101C61.1077 40.4045 61.0649 40.4085 61.0203 40.4248C60.7941 40.5073 60.6171 40.6559 60.4884 40.8702C60.3595 41.0849 60.2986 41.343 60.3042 41.6445C60.3109 41.915 60.384 42.1395 60.5236 42.3204C60.6639 42.5024 60.8545 42.5955 61.096 42.6019C61.2964 42.6077 61.4852 42.5334 61.6609 42.3782Z" fill="#2D2C6E"/>
<path d="M65.5548 43.0779C65.3415 42.8275 65.0728 42.4555 64.7488 41.9636C64.396 41.4643 64.1471 41.1269 64.0004 40.9482C64.0034 41.0755 64.0113 41.3572 64.0243 41.7938C64.0371 42.2313 64.0439 42.5937 64.0439 42.8822C64.0439 42.9749 64.0103 43.0532 63.9459 43.1192C63.8807 43.1838 63.8025 43.2164 63.7097 43.2164C63.6175 43.2164 63.5391 43.1828 63.4736 43.1192C63.4079 43.0532 63.3755 42.9751 63.3755 42.8822C63.3755 42.6028 63.3671 42.1514 63.3493 41.5272C63.332 40.9037 63.3294 40.4309 63.3424 40.1097C63.3457 40.0184 63.3801 39.9402 63.4471 39.8764C63.5141 39.813 63.5936 39.783 63.6858 39.786C63.7306 39.7898 63.7734 39.7993 63.8149 39.8143C63.8751 39.8334 63.9273 39.8682 63.9718 39.9186C64.0259 39.9861 64.1137 40.0917 64.2342 40.2352C64.3545 40.3805 64.4457 40.4889 64.5058 40.5622C64.6836 40.7467 64.9477 41.0856 65.2972 41.5816L65.526 41.9101C65.5359 41.1732 65.5374 40.5747 65.5313 40.1138C65.5313 40.0222 65.5632 39.9433 65.6263 39.8784C65.6903 39.8128 65.7682 39.7794 65.8604 39.7779C65.9521 39.7764 66.0311 39.8069 66.0966 39.8703C66.1618 39.9341 66.1959 40.0123 66.199 40.1041C66.2018 40.5357 66.1972 41.4551 66.1842 42.8626C66.1809 42.9525 66.1488 43.027 66.0887 43.0894C66.0286 43.151 65.9537 43.1851 65.8648 43.1917C65.7405 43.2141 65.6375 43.1764 65.5548 43.0779Z" fill="#2D2C6E"/>
<path d="M67.0469 43.0871C66.9835 43.0237 66.9501 42.9459 66.947 42.8537C66.9435 42.5295 66.9374 42.0715 66.9277 41.4768L66.9129 40.1382C66.9129 40.0466 66.9453 39.9677 67.0087 39.9023C67.0721 39.8369 67.1501 39.8038 67.242 39.8018C67.3342 39.8003 67.4129 39.8313 67.4784 39.8944C67.5431 39.9583 67.5778 40.0362 67.58 40.1278L67.5948 41.3765L67.6093 42.5771C67.7647 42.5771 67.9914 42.5756 68.2887 42.5718C68.5857 42.5692 68.8043 42.5667 68.9441 42.5667C69.0364 42.5667 69.1153 42.5975 69.18 42.6593C69.2455 42.7217 69.2781 42.798 69.2781 42.8868C69.2781 42.9756 69.2455 43.0522 69.18 43.1181C69.1148 43.1828 69.0361 43.2153 68.9441 43.2153C68.8394 43.2153 68.5674 43.2169 68.1293 43.2204C67.6873 43.2237 67.4132 43.2237 67.3088 43.2204C67.2015 43.2176 67.1136 43.1729 67.0469 43.0871Z" fill="#2D2C6E"/>
<path d="M69.6075 43.1335C69.5407 43.0706 69.5061 42.9938 69.5028 42.9021C69.5028 42.8199 69.5293 42.7462 69.5815 42.6802C69.6337 42.6154 69.7002 42.5767 69.7791 42.5632C69.7825 42.0112 69.7809 41.3104 69.7743 40.4627C69.6979 40.447 69.6339 40.4088 69.5833 40.3487C69.5326 40.2884 69.5068 40.2162 69.5068 40.1347C69.5068 40.0426 69.5402 39.9647 69.6072 39.9016C69.6742 39.8377 69.7534 39.8052 69.8461 39.8052L70.3841 39.8105C70.4769 39.8105 70.5545 39.8441 70.6182 39.9113C70.6816 39.9775 70.7135 40.0569 70.7135 40.1492C70.7135 40.2284 70.6873 40.2986 70.6343 40.3584C70.5821 40.4185 70.5156 40.4566 70.4366 40.4722C70.4463 41.3079 70.4493 41.9998 70.4463 42.55C70.526 42.5624 70.5915 42.5983 70.6445 42.6591C70.6967 42.7194 70.7244 42.7894 70.7278 42.8688C70.7278 42.9604 70.6967 43.0406 70.6343 43.1073C70.5726 43.1737 70.4952 43.2085 70.4035 43.2121L69.8456 43.2266C69.7539 43.2253 69.6747 43.1938 69.6075 43.1335Z" fill="#2D2C6E"/>
<path d="M73.5087 43.0779C73.2957 42.8275 73.027 42.4555 72.7027 41.9636C72.3499 41.4643 72.1011 41.1269 71.9543 40.9482C71.9574 41.0755 71.966 41.3572 71.9785 41.7938C71.9915 42.2313 71.9974 42.5937 71.9974 42.8822C71.9974 42.9749 71.965 43.0532 71.8996 43.1192C71.8344 43.1838 71.7559 43.2164 71.6637 43.2164C71.5715 43.2164 71.4928 43.1828 71.427 43.1192C71.3621 43.0532 71.3295 42.9751 71.3295 42.8822C71.3295 42.6028 71.3208 42.1514 71.3035 41.5272C71.2854 40.9037 71.2834 40.4309 71.2959 40.1097C71.2997 40.0184 71.3338 39.9402 71.4013 39.8764C71.4678 39.813 71.5473 39.783 71.6397 39.786C71.6843 39.7898 71.7271 39.7993 71.7689 39.8143C71.829 39.8334 71.8815 39.8682 71.9258 39.9186C71.9798 39.9861 72.0674 40.0917 72.1877 40.2352C72.3089 40.3805 72.3993 40.4889 72.46 40.5622C72.6378 40.7467 72.9017 41.0856 73.2509 41.5816L73.4799 41.9101C73.4898 41.1732 73.4911 40.5747 73.485 40.1138C73.485 40.0222 73.5168 39.9433 73.5803 39.8784C73.6437 39.8128 73.7222 39.7794 73.8136 39.7779C73.9058 39.7764 73.985 39.8069 74.05 39.8703C74.1155 39.9341 74.1493 40.0123 74.1526 40.1041C74.1557 40.5357 74.1509 41.4551 74.1381 42.8626C74.1351 42.9525 74.103 43.027 74.0429 43.0894C73.9825 43.151 73.9078 43.1851 73.8187 43.1917C73.6946 43.2141 73.5915 43.1764 73.5087 43.0779Z" fill="#2D2C6E"/>
<path d="M75.2202 43.2016C75.1568 43.2016 75.099 43.1835 75.0462 43.1471C74.9935 43.11 74.9548 43.0649 74.9291 43.011C74.8914 42.954 74.8723 42.8919 74.8723 42.8255C74.8751 42.7143 74.8733 42.2669 74.8669 41.4816C74.8631 40.9098 74.8779 40.4604 74.9094 40.1339C74.913 40.0927 74.9224 40.054 74.938 40.0194C74.9637 39.9555 75.0032 39.9046 75.0574 39.8646C75.1117 39.8257 75.1734 39.8041 75.2437 39.8003C75.4757 39.7964 75.7888 39.7959 76.1831 39.7977C76.5772 39.7998 76.8905 39.7992 77.1225 39.7949C77.2142 39.7949 77.2932 39.8275 77.3584 39.8906C77.4236 39.9545 77.4565 40.0316 77.4565 40.1214C77.4565 40.2115 77.4252 40.2894 77.3638 40.3553C77.3014 40.4202 77.2244 40.453 77.132 40.453C76.9542 40.453 76.6887 40.4525 76.3362 40.4504C75.9831 40.4489 75.7177 40.4499 75.5399 40.453C75.5305 40.6467 75.5239 40.8752 75.5211 41.1396C75.6731 41.136 76.1436 41.134 76.9323 41.134C77.024 41.134 77.1032 41.166 77.1681 41.2294C77.2336 41.2935 77.2662 41.3699 77.2662 41.4605C77.2662 41.5508 77.2336 41.6294 77.1681 41.6943C77.1032 41.7592 77.0247 41.7915 76.9323 41.7915C76.1408 41.7915 75.6716 41.7931 75.5256 41.7969C75.532 42.1524 75.5335 42.4038 75.5307 42.5496C76.1752 42.556 76.7147 42.5585 77.1475 42.5585C77.2392 42.5585 77.3174 42.5908 77.3806 42.6547C77.4448 42.7181 77.4761 42.7949 77.4761 42.8876C77.4761 42.9797 77.4443 43.0576 77.3806 43.1209C77.3174 43.1845 77.2392 43.2166 77.1475 43.2166C76.6765 43.2158 76.0343 43.2115 75.2202 43.2016Z" fill="#2D2C6E"/>
<path d="M79.7071 43.139C79.5107 43.0576 79.3548 42.9365 79.2402 42.7774C79.1255 42.6184 79.069 42.4344 79.069 42.2252C79.069 42.098 79.1051 41.998 79.178 41.9275C79.2516 41.856 79.3334 41.8198 79.4264 41.8198C79.5186 41.8198 79.5935 41.8527 79.6503 41.9181C79.7073 41.9837 79.7364 42.0547 79.7364 42.1349C79.7364 42.2145 79.7417 42.2799 79.7509 42.3323C79.7608 42.3848 79.7843 42.4329 79.8222 42.4779C79.8951 42.5662 80.0818 42.6105 80.3803 42.6105C80.5423 42.6105 80.6809 42.5771 80.7948 42.5097C80.9094 42.4433 80.9667 42.3481 80.9667 42.2247C80.9667 42.142 80.9 42.0621 80.7665 41.986C80.6745 41.9356 80.4692 41.8557 80.1516 41.747C79.8049 41.6338 79.544 41.5002 79.369 41.3493C79.1938 41.1992 79.1072 40.9933 79.1072 40.733C79.1072 40.5324 79.1648 40.3576 79.2789 40.2085C79.3925 40.0589 79.5433 39.9443 79.7297 39.8655C79.9157 39.7858 80.1139 39.7458 80.3235 39.7458C80.5395 39.7395 80.7477 39.7746 80.9481 39.8499C81.1483 39.9268 81.3098 40.0354 81.4321 40.1769C81.5544 40.3182 81.6155 40.4782 81.6155 40.6561C81.6155 40.7513 81.5804 40.8327 81.5106 40.9014C81.4408 40.9699 81.3595 41.0037 81.2676 41.0037C81.2041 41.0037 81.142 40.9841 81.0816 40.9462C81.0212 40.908 80.9828 40.8599 80.9672 40.8029C80.9484 40.7269 80.9204 40.6688 80.8837 40.6268C80.847 40.5856 80.7986 40.5477 80.7385 40.5123C80.659 40.4683 80.5872 40.4365 80.5243 40.4177C80.4603 40.3986 80.3701 40.3894 80.2525 40.3894C80.1121 40.3894 79.9972 40.4156 79.9068 40.4683C79.8158 40.5202 79.7705 40.5877 79.7705 40.6704C79.7705 40.7755 79.8225 40.8607 79.9251 40.9276C80.0285 40.9946 80.1737 41.0579 80.3617 41.118C80.7242 41.2389 80.9654 41.3325 81.0864 41.3989C81.2867 41.5104 81.4283 41.6274 81.5108 41.7519C81.5929 41.8753 81.6346 42.0318 81.6346 42.2186C81.6346 42.4189 81.5745 42.5972 81.4535 42.755C81.3328 42.9118 81.1741 43.0344 80.9795 43.1222C80.7838 43.209 80.5811 43.2528 80.3709 43.2528C80.1256 43.2604 79.9048 43.2225 79.7071 43.139Z" fill="#2D2C6E"/>
<path d="M82.7262 43.1134C82.6592 43.1783 82.581 43.2117 82.4901 43.2117C82.3999 43.2117 82.322 43.1773 82.2565 43.1106C82.1911 43.0445 82.1587 42.9653 82.1587 42.8724C82.1618 42.6281 82.1587 42.1828 82.1488 41.5362C82.1396 40.8898 82.1376 40.4157 82.1437 40.1139C82.1472 40.0226 82.1816 39.945 82.2489 39.8829C82.3159 39.8218 82.3948 39.7912 82.4878 39.7925C82.5793 39.794 82.6567 39.8281 82.7191 39.8946C82.7802 39.9615 82.8118 40.0411 82.8118 40.133C82.8055 40.3742 82.8034 40.6794 82.8067 41.0478C83.4583 41.0285 83.9525 41.0196 84.2895 41.0196C84.2895 40.671 84.2913 40.3699 84.2944 40.119C84.2979 40.0277 84.3316 39.9495 84.3965 39.8857C84.462 39.8231 84.5402 39.7915 84.6332 39.7933C84.7246 39.7948 84.8028 39.8284 84.8668 39.8935C84.9299 39.9584 84.962 40.0373 84.962 40.1289C84.9585 40.3363 84.9569 41.2537 84.9569 42.8829C84.9569 42.9755 84.9238 43.0534 84.8586 43.1193C84.7942 43.1839 84.7152 43.2165 84.623 43.2165C84.5308 43.2165 84.4518 43.1834 84.3868 43.1193C84.3216 43.0534 84.289 42.9758 84.289 42.8829V41.6873C83.9584 41.6835 83.4668 41.6929 82.8154 41.7151C82.8223 42.2365 82.8253 42.6246 82.8253 42.8819C82.8266 42.9712 82.7932 43.0493 82.7262 43.1134Z" fill="#2D2C6E"/>
<path d="M86.2743 43.0971C86.0893 43.0014 85.9403 42.8782 85.828 42.7253C85.7154 42.5718 85.6288 42.4067 85.5684 42.2273C85.5078 42.0486 85.4757 41.8613 85.4731 41.6682C85.4663 41.4516 85.4872 41.2498 85.5345 41.063C85.5819 40.876 85.6532 40.6971 85.747 40.5271C85.8405 40.3576 85.9666 40.2062 86.1258 40.0752C86.285 39.9434 86.4646 39.8487 86.6648 39.7914C86.744 39.7726 86.8349 39.7632 86.9363 39.7632H87.0364C87.0871 39.7632 87.1238 39.7647 87.1462 39.7685C87.1684 39.7723 87.1923 39.7734 87.2175 39.7734C87.3192 39.7769 87.4012 39.781 87.4631 39.7879C87.5253 39.7942 87.6068 39.8146 87.7092 39.8497C87.8103 39.8841 87.9107 39.9355 88.0098 40.0024C88.2321 40.1551 88.397 40.347 88.5037 40.5788C88.6099 40.8106 88.6614 41.0506 88.6583 41.3C88.6547 41.5491 88.6112 41.7886 88.5289 42.0173C88.469 42.182 88.3886 42.3385 88.2887 42.4866C88.1881 42.6337 88.0699 42.7678 87.9331 42.8869C87.7963 43.0055 87.6386 43.0986 87.4608 43.1655C87.283 43.2325 87.0968 43.2617 86.9032 43.2559C86.6686 43.2449 86.4587 43.1922 86.2743 43.0971ZM87.4975 42.3782C87.6735 42.2222 87.8067 42.0247 87.8956 41.7873C87.9947 41.5201 88.0179 41.2794 87.9649 41.063C87.912 40.847 87.8032 40.6821 87.6376 40.5676C87.5968 40.5396 87.5627 40.5182 87.5357 40.5032C87.5087 40.4887 87.4771 40.476 87.4407 40.4627C87.4035 40.4503 87.3666 40.4424 87.3291 40.4393C87.2909 40.4358 87.2603 40.434 87.2384 40.434C87.2158 40.434 87.1875 40.433 87.1521 40.4294C87.1174 40.4263 87.0922 40.4225 87.0757 40.4174C87.0599 40.4124 87.0301 40.4101 86.9855 40.4101C86.9442 40.4045 86.9007 40.4085 86.8568 40.4248C86.6309 40.5073 86.4536 40.6559 86.3242 40.8702C86.1961 41.0849 86.1347 41.343 86.1413 41.6445C86.1474 41.915 86.221 42.1395 86.3601 42.3204C86.5005 42.5024 86.691 42.5955 86.9325 42.6019C87.1322 42.6077 87.3205 42.5334 87.4975 42.3782Z" fill="#2D2C6E"/>
<path d="M89.753 43.1472C89.688 43.2121 89.6093 43.2449 89.5168 43.2449C89.4244 43.2449 89.3459 43.2121 89.2805 43.1472C89.2152 43.0815 89.1831 43.0032 89.1831 42.9105C89.1831 42.8184 89.1793 42.3565 89.173 41.5241C89.1671 40.6925 89.1684 40.2306 89.1783 40.1383C89.1814 40.0466 89.216 39.9693 89.2827 39.9077C89.35 39.8459 89.429 39.8151 89.5217 39.8151C89.5377 39.8151 89.553 39.8161 89.5696 39.8199C89.5757 39.8199 89.5838 39.8181 89.5938 39.8151C89.9817 39.7512 90.2849 39.7255 90.5042 39.7387C90.9359 39.767 91.2638 39.9181 91.4869 40.1907C91.6581 40.4006 91.746 40.6243 91.7483 40.8622C91.7516 41.1009 91.677 41.3012 91.5241 41.4628C91.4006 41.599 91.2447 41.7056 91.0572 41.7819C90.8695 41.8583 90.6789 41.9013 90.4848 41.9107C90.4211 41.9145 90.3524 41.9145 90.28 41.9107C90.2061 41.9076 90.1183 41.9013 90.0148 41.8919C89.9124 41.8822 89.8539 41.8758 89.8409 41.8725C89.8467 42.3522 89.8503 42.6983 89.8503 42.9108C89.8503 43.0029 89.8179 43.0815 89.753 43.1472ZM90.7895 41.1753C90.8949 41.1328 90.9729 41.0806 91.0236 41.0203C91.049 40.992 91.0666 40.9653 91.076 40.9414C91.0855 40.9172 91.0829 40.8722 91.0692 40.806C91.0546 40.7391 91.022 40.6739 90.9714 40.6101C90.87 40.4864 90.6998 40.4182 90.4614 40.4052C90.3017 40.3958 90.0953 40.41 89.8414 40.4474C89.8378 40.661 89.836 40.9129 89.836 41.2055H89.8414L90.0655 41.2295C90.1483 41.2356 90.2194 41.2409 90.2803 41.2435C90.3404 41.247 90.3995 41.247 90.456 41.2435C90.574 41.2412 90.6845 41.2175 90.7895 41.1753Z" fill="#2D2C6E"/>
<path d="M92.7378 43.1472C92.6728 43.2121 92.5941 43.2449 92.5016 43.2449C92.4097 43.2449 92.3305 43.2121 92.2655 43.1472C92.2 43.0815 92.1674 43.0032 92.1674 42.9105C92.1674 42.8184 92.1639 42.3565 92.1578 41.5241C92.1514 40.6925 92.1527 40.2306 92.1628 40.1383C92.1659 40.0466 92.2006 39.9693 92.2681 39.9077C92.3351 39.8459 92.4143 39.8151 92.5062 39.8151C92.5223 39.8151 92.5386 39.8161 92.5539 39.8199C92.5607 39.8199 92.5684 39.8181 92.5778 39.8151C92.966 39.7512 93.2694 39.7255 93.4885 39.7387C93.9208 39.767 94.2483 39.9181 94.471 40.1907C94.6427 40.4006 94.7303 40.6243 94.7328 40.8622C94.7364 41.1009 94.6615 41.3012 94.5089 41.4628C94.3846 41.599 94.2287 41.7056 94.0415 41.7819C93.854 41.8583 93.6635 41.9013 93.4694 41.9107C93.4054 41.9145 93.3369 41.9145 93.2638 41.9107C93.1907 41.9076 93.1026 41.9013 92.9991 41.8919C92.896 41.8822 92.8381 41.8758 92.8249 41.8725C92.8313 42.3522 92.8338 42.6983 92.8338 42.9108C92.8353 43.0029 92.803 43.0815 92.7378 43.1472ZM93.7748 41.1753C93.88 41.1328 93.9579 41.0806 94.0086 41.0203C94.0349 40.992 94.0514 40.9653 94.0611 40.9414C94.0708 40.9172 94.068 40.8722 94.0542 40.806C94.0402 40.7391 94.0074 40.6739 93.9567 40.6101C93.855 40.4864 93.6849 40.4182 93.447 40.4052C93.2872 40.3958 93.0806 40.41 92.8262 40.4474C92.8229 40.661 92.8213 40.9129 92.8213 41.2055H92.8262L93.0506 41.2295C93.1329 41.2356 93.2047 41.2409 93.2651 41.2435C93.3252 41.247 93.3845 41.247 93.4408 41.2435C93.559 41.2412 93.6698 41.2175 93.7748 41.1753Z" fill="#2D2C6E"/>
<path d="M95.0864 43.1335C95.0194 43.0706 94.9848 42.9938 94.9812 42.9021C94.9812 42.8199 95.0077 42.7462 95.0604 42.6802C95.1134 42.6154 95.1789 42.5767 95.2589 42.5632C95.2619 42.0112 95.2599 41.3104 95.2535 40.4627C95.1779 40.447 95.1137 40.4088 95.063 40.3487C95.0123 40.2884 94.9863 40.2162 94.9863 40.1347C94.9863 40.0426 95.0197 39.9647 95.0867 39.9016C95.1542 39.8377 95.2329 39.8052 95.3254 39.8052L95.8639 39.8105C95.9566 39.8105 96.034 39.8441 96.098 39.9113C96.1616 39.9775 96.1932 40.0569 96.1932 40.1492C96.1932 40.2284 96.1667 40.2986 96.114 40.3584C96.0613 40.4185 95.9961 40.4566 95.9166 40.4722C95.9258 41.3079 95.9293 41.9998 95.9258 42.55C96.005 42.5624 96.0712 42.5983 96.1237 42.6591C96.1759 42.7194 96.2039 42.7894 96.207 42.8688C96.207 42.9604 96.1759 43.0406 96.114 43.1073C96.0519 43.1737 95.9744 43.2085 95.8827 43.2121L95.3248 43.2266C95.2326 43.2253 95.1527 43.1938 95.0864 43.1335Z" fill="#2D2C6E"/>
<path d="M98.9869 43.0779C98.7737 42.8275 98.5047 42.4555 98.1809 41.9636C97.8273 41.4643 97.5787 41.1269 97.432 40.9482C97.4353 41.0755 97.4429 41.3572 97.4559 41.7938C97.4692 42.2313 97.4753 42.5937 97.4753 42.8822C97.4753 42.9749 97.4424 43.0532 97.3775 43.1192C97.312 43.1838 97.2338 43.2164 97.1408 43.2164C97.0491 43.2164 96.9702 43.1828 96.9057 43.1192C96.8395 43.0532 96.8074 42.9751 96.8074 42.8822C96.8074 42.6028 96.7987 42.1514 96.7809 41.5272C96.7636 40.9037 96.7615 40.4309 96.7743 40.1097C96.7776 40.0184 96.8122 39.9402 96.8787 39.8764C96.9462 39.813 97.0249 39.783 97.1177 39.786C97.1615 39.7898 97.205 39.7993 97.2465 39.8143C97.3062 39.8334 97.3591 39.8682 97.4035 39.9186C97.4577 39.9861 97.5453 40.0917 97.6661 40.2352C97.7861 40.3805 97.877 40.4889 97.9376 40.5622C98.1154 40.7467 98.3793 41.0856 98.7288 41.5816L98.9578 41.9101C98.967 41.1732 98.9688 40.5747 98.9632 40.1138C98.9632 40.0222 98.9943 39.9433 99.0579 39.8784C99.1214 39.8128 99.1998 39.7794 99.292 39.7779C99.3838 39.7764 99.4627 39.8069 99.5282 39.8703C99.5931 39.9341 99.6278 40.0123 99.6301 40.1041C99.6334 40.5357 99.6288 41.4551 99.6161 42.8626C99.6122 42.9525 99.5809 43.027 99.5208 43.0894C99.4602 43.151 99.3858 43.1851 99.2964 43.1917C99.1736 43.2141 99.0697 43.1764 98.9869 43.0779Z" fill="#2D2C6E"/>
<path d="M102.458 43.0801C102.259 43.1743 102.057 43.2203 101.853 43.2188C101.649 43.2165 101.449 43.1814 101.252 43.1114C101.055 43.0419 100.876 42.9351 100.714 42.7926C100.552 42.6493 100.422 42.4839 100.327 42.2966C100.206 42.0648 100.145 41.823 100.142 41.5703C100.138 41.3181 100.182 41.0866 100.275 40.8771C100.364 40.6644 100.491 40.4756 100.656 40.3099C100.824 40.1384 101.012 40.0081 101.219 39.92C101.428 39.8279 101.66 39.7864 101.914 39.7964C102.169 39.8053 102.414 39.8801 102.649 40.0203C102.713 40.0521 102.769 40.0877 102.818 40.1269C102.868 40.1669 102.914 40.2106 102.959 40.2587C103.004 40.3056 103.037 40.3435 103.06 40.3702C103.082 40.3972 103.115 40.4409 103.16 40.5013C103.205 40.5616 103.233 40.6 103.246 40.6158C103.3 40.6883 103.32 40.77 103.308 40.8611C103.295 40.9514 103.252 41.0242 103.179 41.0776C103.106 41.1318 103.025 41.1525 102.936 41.14C102.847 41.1273 102.774 41.084 102.717 41.0107L102.622 40.887L102.545 40.7827C102.532 40.7634 102.512 40.7394 102.485 40.7109C102.459 40.6832 102.433 40.6598 102.409 40.642C102.385 40.6242 102.356 40.6048 102.32 40.5829C102.098 40.4682 101.883 40.4292 101.676 40.4656C101.47 40.5023 101.287 40.6033 101.129 40.7682C100.963 40.9331 100.86 41.1245 100.818 41.342C100.777 41.5599 100.807 41.7767 100.909 41.9933C101.013 42.1996 101.163 42.3521 101.36 42.4498C101.555 42.5488 101.756 42.5796 101.963 42.5432C102.17 42.5065 102.341 42.405 102.478 42.2406C102.541 42.1673 102.578 42.1085 102.587 42.0648C102.594 42.0426 102.599 42.0218 102.602 42.0024C102.51 41.9994 102.335 42.0044 102.077 42.0174C101.985 42.0207 101.905 41.992 101.838 41.9312C101.771 41.8711 101.737 41.795 101.733 41.7029C101.73 41.6105 101.759 41.5319 101.819 41.465C101.879 41.398 101.956 41.3634 102.048 41.3599C102.306 41.351 102.596 41.3459 102.92 41.3459C103.013 41.3459 103.093 41.3792 103.159 41.4456C103.229 41.5125 103.262 41.5952 103.26 41.6935V41.8039C103.263 41.8795 103.262 41.9553 103.257 42.0296C103.252 42.1045 103.244 42.1706 103.231 42.2276C103.193 42.3711 103.112 42.5167 102.987 42.6658C102.835 42.8473 102.659 42.9865 102.458 43.0801Z" fill="#2D2C6E"/>
<path d="M105.591 43.139C105.394 43.0576 105.239 42.9365 105.124 42.7774C105.01 42.6184 104.953 42.4344 104.953 42.2252C104.953 42.098 104.989 41.998 105.062 41.9275C105.136 41.856 105.218 41.8198 105.31 41.8198C105.402 41.8198 105.478 41.8527 105.535 41.9181C105.592 41.9837 105.62 42.0547 105.62 42.1349C105.62 42.2145 105.625 42.2799 105.635 42.3323C105.644 42.3848 105.668 42.4329 105.706 42.4779C105.779 42.5662 105.965 42.6105 106.264 42.6105C106.426 42.6105 106.565 42.5771 106.679 42.5097C106.793 42.4433 106.851 42.3481 106.851 42.2247C106.851 42.142 106.784 42.0621 106.65 41.986C106.558 41.9356 106.354 41.8557 106.036 41.747C105.689 41.6338 105.428 41.5002 105.253 41.3493C105.078 41.1992 104.991 40.9933 104.991 40.733C104.991 40.5324 105.048 40.3576 105.163 40.2085C105.277 40.0589 105.428 39.9443 105.614 39.8655C105.8 39.7858 105.998 39.7458 106.208 39.7458C106.424 39.7395 106.632 39.7746 106.833 39.8499C107.033 39.9268 107.194 40.0354 107.316 40.1769C107.439 40.3182 107.5 40.4782 107.5 40.6561C107.5 40.7513 107.464 40.8327 107.395 40.9014C107.326 40.9699 107.243 41.0037 107.152 41.0037C107.089 41.0037 107.026 40.9841 106.966 40.9462C106.906 40.908 106.867 40.8599 106.852 40.8029C106.833 40.7269 106.805 40.6688 106.768 40.6268C106.732 40.5856 106.684 40.5477 106.624 40.5123C106.544 40.4683 106.472 40.4365 106.409 40.4177C106.345 40.3986 106.255 40.3894 106.137 40.3894C105.998 40.3894 105.882 40.4156 105.791 40.4683C105.701 40.5202 105.655 40.5877 105.655 40.6704C105.655 40.7755 105.708 40.8607 105.81 40.9276C105.914 40.9946 106.059 41.0579 106.247 41.118C106.609 41.2389 106.851 41.3325 106.972 41.3989C107.172 41.5104 107.313 41.6274 107.396 41.7519C107.479 41.8753 107.52 42.0318 107.52 42.2186C107.52 42.4189 107.46 42.5972 107.338 42.755C107.218 42.9118 107.059 43.0344 106.864 43.1222C106.668 43.209 106.466 43.2528 106.256 43.2528C106.01 43.2604 105.788 43.2225 105.591 43.139Z" fill="#2D2C6E"/>
<path d="M109.194 43.1158C109.129 43.1802 109.05 43.21 108.958 43.2084C108.866 43.2074 108.788 43.1738 108.724 43.1084C108.661 43.0438 108.629 42.9652 108.629 42.8723C108.632 42.7738 108.631 42.3249 108.624 41.5241C108.621 41.0953 108.627 40.737 108.643 40.4479C108.389 40.4479 108.174 40.4499 108 40.453C107.907 40.453 107.829 40.4212 107.763 40.3578C107.698 40.2939 107.664 40.2161 107.663 40.1244C107.662 40.0326 107.692 39.9534 107.756 39.888C107.82 39.8234 107.897 39.7893 107.989 39.786C108.19 39.7824 108.519 39.7807 108.976 39.7794C109.433 39.7784 109.763 39.7773 109.963 39.7773C110.055 39.7773 110.135 39.8086 110.202 39.872C110.268 39.9359 110.303 40.0132 110.304 40.1036C110.305 40.1937 110.275 40.2736 110.211 40.3418C110.147 40.4105 110.071 40.4441 109.983 40.4441C109.782 40.4441 109.558 40.4459 109.31 40.4494C109.294 40.7263 109.287 41.0828 109.291 41.5213C109.297 42.331 109.299 42.7847 109.295 42.8837C109.293 42.9746 109.259 43.0527 109.194 43.1158Z" fill="#2D2C6E"/>
<path d="M111.161 43.0971C110.976 43.0014 110.827 42.8782 110.714 42.7253C110.602 42.5718 110.515 42.4067 110.455 42.2273C110.395 42.0486 110.363 41.8613 110.359 41.6682C110.353 41.4516 110.374 41.2498 110.421 41.063C110.469 40.876 110.539 40.6971 110.633 40.5271C110.728 40.3576 110.853 40.2062 111.012 40.0752C111.172 39.9434 111.351 39.8487 111.551 39.7914C111.631 39.7726 111.721 39.7632 111.823 39.7632H111.923C111.974 39.7632 112.01 39.7647 112.033 39.7685C112.056 39.7723 112.08 39.7734 112.104 39.7734C112.206 39.7769 112.289 39.781 112.35 39.7879C112.412 39.7942 112.494 39.8146 112.595 39.8497C112.697 39.8841 112.798 39.9355 112.896 40.0024C113.12 40.1551 113.284 40.347 113.39 40.5788C113.496 40.8106 113.549 41.0506 113.545 41.3C113.542 41.5491 113.498 41.7886 113.416 42.0173C113.356 42.182 113.275 42.3385 113.175 42.4866C113.074 42.6337 112.956 42.7678 112.82 42.8869C112.683 43.0055 112.526 43.0986 112.347 43.1655C112.17 43.2325 111.983 43.2617 111.79 43.2559C111.555 43.2449 111.345 43.1922 111.161 43.0971ZM112.384 42.3782C112.56 42.2222 112.693 42.0247 112.782 41.7873C112.881 41.5201 112.904 41.2794 112.851 41.063C112.799 40.847 112.69 40.6821 112.525 40.5676C112.484 40.5396 112.449 40.5182 112.422 40.5032C112.396 40.4887 112.364 40.476 112.327 40.4627C112.29 40.4503 112.253 40.4424 112.216 40.4393C112.177 40.4358 112.147 40.434 112.125 40.434C112.102 40.434 112.073 40.433 112.038 40.4294C112.003 40.4263 111.979 40.4225 111.962 40.4174C111.946 40.4124 111.916 40.4101 111.872 40.4101C111.83 40.4045 111.788 40.4085 111.743 40.4248C111.517 40.5073 111.341 40.6559 111.211 40.8702C111.083 41.0849 111.021 41.343 111.028 41.6445C111.034 41.915 111.107 42.1395 111.247 42.3204C111.387 42.5024 111.578 42.5955 111.82 42.6019C112.019 42.6077 112.207 42.5334 112.384 42.3782Z" fill="#2D2C6E"/>
<path d="M115.944 42.2196C115.886 42.0768 115.822 41.9722 115.748 41.9058C115.668 41.833 115.554 41.7865 115.405 41.7676C115.369 41.7709 115.322 41.7732 115.262 41.7742C115.201 41.776 115.169 41.777 115.166 41.777C115.043 41.7801 114.947 41.7832 114.88 41.7865H114.737C114.74 42.218 114.742 42.5837 114.742 42.882C114.742 42.9744 114.709 43.0525 114.644 43.1184C114.579 43.1825 114.5 43.2156 114.408 43.2156C114.316 43.2156 114.237 43.1825 114.171 43.1184C114.106 43.0525 114.074 42.9746 114.074 42.882C114.074 42.5234 114.071 42.0465 114.064 41.4528C114.058 40.8586 114.055 40.4143 114.055 40.1189C114.055 40.0268 114.087 39.9479 114.153 39.883C114.218 39.8183 114.296 39.7858 114.389 39.7858H114.412C114.867 39.728 115.29 39.7298 115.681 39.7903C115.983 39.8349 116.221 39.9186 116.396 40.043C116.66 40.227 116.784 40.4746 116.768 40.7864C116.75 41.091 116.591 41.3327 116.292 41.5098C116.405 41.6434 116.498 41.803 116.568 41.9895C116.638 42.175 116.709 42.444 116.783 42.7967C116.805 42.8855 116.793 42.9703 116.745 43.0494C116.698 43.1291 116.629 43.18 116.54 43.2016C116.451 43.224 116.366 43.2115 116.287 43.1637C116.208 43.1158 116.157 43.0476 116.134 42.9588C116.062 42.6316 115.998 42.3855 115.944 42.2196ZM114.742 41.1195C115.006 41.0882 115.232 41.0821 115.419 41.1009C115.445 41.0971 115.467 41.0945 115.487 41.0915C115.673 41.0597 115.825 41.0116 115.939 40.9482C116.044 40.8882 116.098 40.8212 116.101 40.7485C116.107 40.6846 116.08 40.6322 116.02 40.5912C115.925 40.524 115.777 40.4767 115.578 40.4479C115.336 40.4105 115.051 40.4019 114.723 40.4242C114.723 40.6184 114.725 40.8495 114.729 41.1197H114.742V41.1195Z" fill="#2D2C6E"/>
<path d="M117.675 43.2016C117.611 43.2016 117.553 43.1835 117.501 43.1471C117.448 43.11 117.41 43.0649 117.384 43.011C117.346 42.954 117.326 42.8919 117.326 42.8255C117.33 42.7143 117.328 42.2669 117.321 41.4816C117.318 40.9098 117.333 40.4604 117.364 40.1339C117.368 40.0927 117.378 40.054 117.392 40.0194C117.418 39.9555 117.458 39.9046 117.512 39.8646C117.566 39.8257 117.628 39.8041 117.698 39.8003C117.93 39.7964 118.243 39.7959 118.637 39.7977C119.031 39.7998 119.345 39.7992 119.577 39.7949C119.669 39.7949 119.748 39.8275 119.813 39.8906C119.879 39.9545 119.911 40.0316 119.911 40.1214C119.911 40.2115 119.88 40.2894 119.818 40.3553C119.755 40.4202 119.678 40.453 119.587 40.453C119.408 40.453 119.144 40.4525 118.79 40.4504C118.437 40.4489 118.172 40.4499 117.995 40.453C117.984 40.6467 117.978 40.8752 117.975 41.1396C118.128 41.136 118.598 41.134 119.386 41.134C119.478 41.134 119.557 41.166 119.622 41.2294C119.688 41.2935 119.721 41.3699 119.721 41.4605C119.721 41.5508 119.688 41.6294 119.622 41.6943C119.557 41.7592 119.478 41.7915 119.386 41.7915C118.595 41.7915 118.126 41.7931 117.979 41.7969C117.986 42.1524 117.987 42.4038 117.985 42.5496C118.63 42.556 119.169 42.5585 119.601 42.5585C119.694 42.5585 119.772 42.5908 119.835 42.6547C119.898 42.7181 119.93 42.7949 119.93 42.8876C119.93 42.9797 119.898 43.0576 119.835 43.1209C119.772 43.1845 119.694 43.2166 119.601 43.2166C119.13 43.2158 118.488 43.2115 117.675 43.2016Z" fill="#2D2C6E"/>
<path d="M35.5365 21.3987C35.0535 23.5424 34.2091 25.6322 33.0024 27.6675C31.7955 29.7046 30.3736 31.5253 28.7382 33.1331C27.1016 34.7401 25.319 36.0265 23.3881 36.9907C21.4572 37.9554 19.5794 38.4099 17.7562 38.3575C15.1279 38.2494 12.9821 37.3923 11.32 35.7853C9.65707 34.1775 8.63738 31.9819 8.26292 29.1954C7.83294 29.1954 7.43072 29.2228 7.05601 29.2755C6.68003 29.3295 6.2778 29.3028 5.84935 29.1954C4.72293 29.1422 3.72998 28.9012 2.87256 28.4716C2.12085 28.0976 1.45065 27.5349 0.861202 26.7837C0.271755 26.034 0.0300148 24.9627 0.137002 23.5689C0.191005 22.9258 0.378232 22.3632 0.699958 21.881C0.967935 21.4527 1.37015 21.0911 1.90687 20.7959C2.44257 20.502 3.19428 20.4078 4.15946 20.5144C3.94472 21.3183 3.91823 22.0693 4.07922 22.7648C4.18595 23.3549 4.46718 23.9305 4.92365 24.4932C5.37886 25.0558 6.14305 25.3907 7.21649 25.4976H8.10168C8.15466 25.123 8.20867 24.7077 8.26267 24.2517C8.3154 23.7977 8.36966 23.3274 8.4234 22.8457C8.79786 20.5951 9.42908 18.4249 10.314 16.3354C11.199 14.2459 12.2171 12.3043 13.371 10.5087C14.5245 8.71361 15.7714 7.12009 17.1128 5.72607C18.4527 4.33307 19.7676 3.23424 21.055 2.4306C22.0202 1.84175 23.0386 1.34552 24.112 0.9437C25.1847 0.541883 26.2706 0.328377 27.3706 0.301148C28.4692 0.274683 29.5427 0.435257 30.5886 0.783126C31.6342 1.13227 32.5859 1.76133 33.4444 2.67185C34.3018 3.52968 34.8388 4.74888 35.0535 6.32917C35.2672 7.90998 35.1065 9.66408 34.5708 11.5933C34.6238 11.6475 34.7985 11.8218 35.0938 12.116C35.388 12.4109 35.6432 12.9196 35.8579 13.6428C36.0717 14.3663 36.1797 15.3585 36.1797 16.6166C36.1799 17.876 35.9649 19.4695 35.5365 21.3987ZM3.83799 21.0771L2.71182 21.2376C2.49683 21.2919 2.28184 21.3723 2.06812 21.4791C1.69214 21.6397 1.31641 21.9889 0.941697 22.5235C0.565714 23.3814 0.565714 24.3458 0.941697 25.4172L1.18293 25.3367C1.07492 24.7479 1.04868 24.2517 1.10269 23.8498C1.15542 23.4483 1.30392 23.0337 1.54516 22.6042C1.78639 22.1759 2.20134 21.828 2.79232 21.5593L3.83799 21.0771ZM8.10193 27.7477C9.38909 27.7477 10.8637 27.5471 12.5269 27.1453C14.1887 26.743 16.0391 26.0877 18.078 25.1762L18.5607 24.9349C18.6674 24.8828 18.7479 24.8548 18.8019 24.8548L18.5607 24.5331C18.3999 24.6942 18.2112 24.828 17.9977 24.9349C17.139 25.3108 15.7851 25.7928 13.9348 26.3821C12.0844 26.972 10.22 27.2659 8.34316 27.2659C7.48447 27.2659 6.72027 27.1998 6.05033 27.0651C5.37911 26.9318 4.77566 26.6771 4.24021 26.3017L3.51601 25.8996L4.07947 26.5427C4.29294 26.7577 4.58843 26.9723 4.96416 27.1855C5.28614 27.3461 5.70084 27.4807 6.21132 27.5876C6.72053 27.6955 7.35022 27.7477 8.10193 27.7477ZM7.217 26.7035C7.32399 26.7575 7.45848 26.8112 7.61922 26.8641C7.78021 26.9181 8.18243 26.9445 8.82613 26.9445C10.0593 26.9445 11.5614 26.6506 13.3316 26.06V25.8192C13.2776 25.8192 12.7143 25.9396 11.6419 26.1803C10.5685 26.4218 9.49633 26.5425 8.42391 26.5425C8.20918 26.5425 8.00794 26.5297 7.8202 26.5028C7.63196 26.476 7.45848 26.4625 7.29749 26.4625L7.217 26.7035ZM12.6074 35.9461C12.1774 35.5702 11.7489 35.1145 11.32 34.5796C10.944 34.1513 10.5682 33.6148 10.1938 32.9726C9.81806 32.3297 9.52282 31.5795 9.30885 30.722H9.06762C9.28134 31.5795 9.52282 32.3028 9.79156 32.8919C10.0593 33.482 10.4072 34.0973 10.8375 34.7401C11.2662 35.3832 11.8294 35.8919 12.5271 36.2675L12.6074 35.9461ZM20.2503 5.32399C18.8019 6.60986 17.555 7.88326 16.5093 9.14164C15.4634 10.401 14.3497 12.0086 13.1706 13.964C11.9901 15.9204 10.9707 18.2371 10.1135 20.916L10.355 20.9964C11.2125 19.0145 12.0444 17.2592 12.8491 15.7318C13.6535 14.205 14.6857 12.5447 15.9464 10.7489C17.206 8.95409 18.6944 7.22646 20.4116 5.56447L20.2503 5.32399ZM30.1461 6.52996C29.6096 6.04722 28.9922 5.6996 28.2957 5.48482C27.7053 5.32425 26.9406 5.27157 26.0029 5.32425C25.064 5.3782 24.004 5.78027 22.8251 6.53021C21.6985 7.22697 20.6125 8.08455 19.5669 9.10169C18.5209 10.1201 17.5555 11.2189 16.6706 12.3972C15.7854 13.5761 14.9809 14.7681 14.2567 15.9736C13.5328 17.1793 12.9016 18.3445 12.3664 19.4698C11.9904 20.2208 11.6422 21.1173 11.3205 22.1624C10.9987 23.2068 10.784 24.2659 10.677 25.337C12.8756 25.0156 15.2087 24.2659 17.6763 23.0867C20.1431 21.9087 22.3954 20.4623 24.4345 18.7466C25.1852 18.0508 25.9089 17.3803 26.6066 16.7372C27.1961 16.1486 27.7858 15.5458 28.3767 14.9289C28.9659 14.3136 29.4224 13.737 29.7444 13.2008C30.1191 12.7186 30.4284 12.1697 30.6698 11.5533C30.9111 10.938 31.0583 10.3074 31.1123 9.66434C31.165 9.02178 31.1123 8.41893 30.9513 7.85629C30.7898 7.29338 30.5208 6.85111 30.1461 6.52996ZM25.0777 23.4885C23.9513 24.2921 22.6641 25.0428 21.2157 25.7386C19.9813 26.3289 18.4804 26.9445 16.7106 27.5876C14.9404 28.2304 12.9553 28.6859 10.7567 28.9534C10.918 30.2937 11.3062 31.4589 11.9234 32.4501C12.5393 33.4418 13.4645 34.0709 14.699 34.3386C16.0391 34.7142 17.4067 34.7943 18.8019 34.5796C19.9813 34.3658 21.2685 33.8696 22.6639 33.0924C24.058 32.317 25.3717 30.9627 26.6059 29.034C28.483 26.1948 29.7699 23.7432 30.4678 21.6802C31.1643 19.6179 31.594 18.0771 31.755 17.0586C31.0033 18.1839 30.0656 19.2962 28.9392 20.3943C27.8128 21.4929 26.5256 22.5235 25.0777 23.4885ZM15.7449 37.232L14.6992 36.6696C14.6992 36.6151 14.3232 36.3342 13.5728 35.8252C12.8211 35.3155 12.0706 34.6071 11.32 33.6955L11.0787 33.8563C11.4004 34.3925 11.7222 34.8335 12.0442 35.1827C12.3661 35.5308 12.7406 35.8659 13.1706 36.1873C13.599 36.5085 14.082 36.75 14.6187 36.9106L15.7449 37.232ZM23.7098 35.7054C23.7628 35.7054 23.7901 35.6909 23.7901 35.6649C23.7901 35.6372 23.8165 35.6247 23.8706 35.6247L23.951 35.5445L23.7901 35.3033C23.7363 35.3033 23.6958 35.3158 23.6693 35.3435C23.6418 35.37 23.6016 35.3835 23.5486 35.3835C23.2268 35.597 22.6236 35.8659 21.7385 36.1873C20.8535 36.5085 19.7676 36.6698 18.4802 36.6698C17.9435 36.6698 17.541 36.6421 17.2733 36.5894L16.2276 36.5088L17.1928 36.9108C17.2998 36.9635 17.4608 37.0177 17.6755 37.0717C17.8892 37.1241 18.2917 37.1521 18.8824 37.1521C19.4184 37.1521 20.0891 37.0579 20.8938 36.8709C21.6982 36.682 22.6361 36.2937 23.7098 35.7054ZM18.1587 26.1406C18.2654 26.0877 18.36 26.0602 18.4404 26.0602C18.5207 26.0602 18.6414 26.0075 18.8022 25.8994C19.3379 25.6859 20.1023 25.3367 21.0953 24.8548C22.0872 24.3725 23.1469 23.6771 24.2733 22.765L24.1925 22.5238C23.3338 23.0602 22.6099 23.5025 22.0202 23.8498C21.4297 24.1992 20.826 24.5608 20.2103 24.9349C19.5929 25.3108 19.0964 25.578 18.7219 25.7386C18.5609 25.7928 18.4002 25.8192 18.239 25.8192H18.0782L18.1587 26.1406ZM24.434 4.03813C23.7903 4.14603 23.1869 4.34706 22.6239 4.64098C22.0607 4.93592 21.578 5.25758 21.1758 5.60544C20.7735 5.95459 20.3311 6.39661 19.8481 6.93152L20.0091 7.17276C20.4378 6.74448 20.894 6.3564 21.377 6.00752C21.8594 5.65939 22.3424 5.35148 22.8251 5.08301C23.3606 4.81581 23.9238 4.54784 24.5145 4.27937L24.434 4.03813ZM21.6982 35.5443C22.8776 35.1687 23.9513 34.6602 24.9165 34.0169C25.8822 33.3741 26.7393 32.6509 27.4913 31.847C28.2417 31.0436 28.8992 30.1993 29.4622 29.3155C30.0251 28.4312 30.5208 27.5876 30.9505 26.7837C31.3793 25.9271 31.7677 25.0958 32.1172 24.2924C32.4654 23.4887 32.7469 22.7925 32.9619 22.2029C33.1754 21.5069 33.3641 20.8361 33.5251 20.1935L33.2836 20.1129C32.3182 23.275 31.178 25.833 29.8644 27.7886C28.5492 29.745 27.3025 31.2721 26.1231 32.3697C24.943 33.4685 23.9108 34.2182 23.0259 34.6205C22.1407 35.0224 21.6707 35.2231 21.618 35.2231V35.3837V35.2231V35.3837V35.2231L21.6982 35.5443ZM31.5943 22.6042C31.3253 23.1943 31.031 23.8374 30.7093 24.5329C30.3876 25.2299 30.0656 25.8732 29.7436 26.4623C29.3679 27.1588 28.9919 27.8823 28.6175 28.632L28.7785 28.7928C29.1527 28.3103 29.5286 27.7352 29.9046 27.0646C30.2791 26.3954 30.6011 25.7383 30.8701 25.0955C31.1378 24.4527 31.3653 23.904 31.5538 23.448C31.741 22.9935 31.8352 22.7385 31.8352 22.6843L31.5943 22.6042ZM33.4444 11.1912C33.1229 12.1562 32.7067 13.0799 32.1975 13.9642C31.687 14.8483 31.178 15.6254 30.6688 16.2947C30.1583 16.9655 29.5284 17.7292 28.7782 18.5855L28.9389 18.7461C29.8504 17.8895 30.6146 17.0319 31.2318 16.1743C31.8477 15.3178 32.3442 14.5141 32.7204 13.7629C33.1489 12.9066 33.4971 12.075 33.7661 11.2714L33.4444 11.1912ZM29.1004 3.47548C30.8163 3.79714 31.9425 4.60077 32.4792 5.88664C32.9619 6.85111 33.1091 7.89598 32.9219 9.02128C32.7334 10.1466 32.5057 11.0578 32.2377 11.7538C32.0767 11.9684 31.9422 12.2636 31.8352 12.6381L32.0767 12.7183C32.0767 12.6654 32.1032 12.585 32.1572 12.4771C32.2639 12.2636 32.3444 12.049 32.3987 11.8343C33.6859 9.04876 33.8193 6.87859 32.8012 5.32399C32.5322 4.78909 32.1837 4.37327 31.7552 4.07833C31.3255 3.78416 30.923 3.55564 30.5486 3.39481C30.1729 3.23398 29.6901 3.10115 29.1007 2.993V3.47548H29.1004ZM34.0883 12.7985L34.4905 13.8433C34.8125 14.5406 34.9998 15.3175 35.0535 16.1743C35.1065 17.0319 35.0797 17.8356 34.973 18.5855C34.8647 19.497 34.732 20.3813 34.5708 21.2374L34.8123 21.3985C35.1867 20.0055 35.4017 18.8265 35.4557 17.862C35.5084 16.8976 35.482 16.1077 35.3755 15.4911C35.2672 14.8757 35.0257 14.2729 34.6513 13.6825L34.0883 12.7985Z" fill="#95AE3C"/>
<path d="M50.8218 27.5872C50.9288 27.6412 51.0495 27.788 51.1838 28.0293C51.317 28.2702 51.1438 28.6856 50.6608 29.2752C49.7484 30.3997 48.8369 31.3784 47.9258 32.2083C47.0131 33.0399 46.4234 33.5885 46.1554 33.856C45.4039 34.3922 44.7742 34.6998 44.265 34.7803C43.7543 34.8607 43.3661 34.8736 43.0984 34.8207C42.6154 34.8207 42.2259 34.6871 41.9317 34.4186C41.6362 34.1512 41.4212 33.8033 41.2885 33.374C41.1537 32.946 41.0875 32.504 41.0875 32.0479C41.0875 31.5932 41.1135 31.1514 41.1678 30.7219C41.1678 30.615 41.1942 30.4539 41.2483 30.2394C41.301 30.0259 41.355 29.8111 41.4087 29.5968C41.4617 29.3831 41.5155 29.1683 41.5697 28.9533V29.0339C41.8374 28.017 42.2129 26.8778 42.6961 25.6181C43.1789 24.36 43.8488 22.9255 44.7075 21.3182C44.7602 21.1047 44.8682 20.8899 45.029 20.6752C45.136 20.4619 45.2707 20.2329 45.4314 19.9921C45.5924 19.7506 45.7534 19.4972 45.9144 19.2282C45.3777 19.3364 44.8682 19.4168 44.3858 19.4695C43.9031 19.5234 43.4466 19.5776 43.0181 19.63C42.7491 19.6842 42.5079 19.7102 42.2942 19.7102C42.0789 19.7102 41.8377 19.7382 41.57 19.7909C41.1942 21.1307 40.7375 22.3626 40.2021 23.4881C39.6656 24.6132 39.1159 25.6178 38.5527 26.5024C37.9895 27.3862 37.439 28.1496 36.9033 28.7927C36.3676 29.4357 35.9379 29.9452 35.6161 30.3195C35.2944 30.6412 35.0532 30.7491 34.8922 30.6412C34.7852 30.6412 34.6785 30.5885 34.5702 30.4804C34.3568 30.2669 34.3028 30.0786 34.4095 29.918C34.4095 29.8111 34.4632 29.7042 34.5702 29.5966C35.1609 28.953 36.0324 27.8282 37.185 26.2204C38.3379 24.6132 39.3171 22.5776 40.1216 20.1123C40.1746 20.0596 40.2021 19.9792 40.2021 19.8713H40.1216C39.9066 19.925 39.6516 19.9654 39.3576 19.9919C39.0622 20.0191 38.7539 20.0054 38.4325 19.9514C37.8955 19.8985 37.4265 19.7644 37.0243 19.5496C36.6218 19.3361 36.3944 18.9608 36.3403 18.4243C36.3403 17.6204 36.5013 16.9512 36.8233 16.415C37.1453 15.8798 37.5198 15.4505 37.9495 15.1289C38.3782 14.8075 38.8207 14.5802 39.2769 14.4458C39.7321 14.3128 40.0676 14.2183 40.2826 14.1646H40.3628C40.8985 14.0578 41.3145 14.1117 41.6097 14.3252C41.9042 14.5403 42.1052 14.8075 42.2129 15.1289C42.3744 15.5045 42.4269 15.9327 42.3744 16.415C42.3744 16.6837 42.3199 17.0853 42.2129 17.6204L42.1327 18.1027C43.0984 17.9958 44.0638 17.809 45.029 17.5403C45.9947 17.2728 46.6646 17.0853 47.0403 16.9779H47.2013H47.6035C47.871 17.0855 48.2192 17.2469 48.6489 17.4601C49.0779 17.6749 49.4661 17.9423 49.8159 18.264C50.1641 18.5854 50.4193 18.9343 50.5801 19.3086C50.7408 19.6842 50.7133 20.0863 50.4996 20.5141C50.1238 21.2108 49.4939 22.2964 48.609 23.7693C47.724 25.2438 46.9321 26.7571 46.2354 28.3105C46.1276 28.5252 45.9664 28.9006 45.7529 29.436C45.3229 30.3473 44.9885 31.1234 44.747 31.7662C44.5058 32.4096 44.4377 32.7846 44.5457 32.8918C44.707 32.8918 44.84 32.8653 44.948 32.8119C45.2162 32.7047 45.5919 32.4635 46.0746 32.0879C46.5574 31.7138 47.0526 31.2718 47.563 30.7618C48.0722 30.2531 48.5812 29.7309 49.0917 29.195C49.6009 28.6596 49.9891 28.2038 50.2581 27.8285L50.4191 27.6674C50.5263 27.5605 50.6608 27.5346 50.8218 27.5872ZM37.386 17.0585C37.386 17.0056 37.5195 16.7773 37.7885 16.3755C38.0562 15.9735 38.4852 15.5854 39.0759 15.2098L40.0413 14.6474L38.9149 15.0492C38.5929 15.1574 38.3242 15.3179 38.1102 15.5314C37.8952 15.6918 37.694 15.893 37.5068 16.134C37.318 16.3755 37.1978 16.6567 37.145 16.9781L37.0648 17.7014L37.386 17.0585ZM40.2826 19.2282C40.8723 19.2282 41.3687 19.2157 41.771 19.1883C42.1732 19.162 42.3747 19.1218 42.3747 19.0676V18.8264C42.2664 18.8806 42.1329 18.9065 41.9722 18.9065H41.0065C39.4504 18.9065 38.4852 18.6394 38.1102 18.1029C37.9492 17.8355 37.9757 17.4601 38.1907 16.9779L37.9492 16.8975C37.8412 17.0583 37.7607 17.2469 37.708 17.4601C37.654 17.6207 37.6137 17.8092 37.5873 18.0225C37.5595 18.2373 37.5995 18.4246 37.708 18.5854C37.869 18.9065 38.2172 19.0949 38.7539 19.1478C39.0216 19.202 39.2769 19.228 39.5184 19.228C39.7599 19.2282 40.0136 19.2282 40.2826 19.2282ZM40.3631 15.5314C40.2551 15.6393 40.1216 15.8002 39.9608 16.0134C39.7998 16.2284 39.6516 16.4694 39.5186 16.7369C39.3841 17.0056 39.3171 17.2596 39.3171 17.5003C39.3171 17.7416 39.3976 17.9161 39.5586 18.0228C39.8803 18.2375 40.2826 18.3177 40.7653 18.2643C41.033 17.2471 41.14 16.5763 41.0875 16.2549C41.0875 16.0414 41.033 15.8406 40.926 15.6521C40.8178 15.4648 40.6308 15.4246 40.3631 15.5314ZM42.4549 32.731C42.4549 32.3024 42.4814 31.8204 42.5352 31.2838C42.5881 30.856 42.6824 30.3195 42.8166 29.6767C42.9499 29.0339 43.1511 28.3105 43.4201 27.5068L43.1789 27.4267C43.1789 27.4806 43.0984 27.6956 42.9376 28.0692C42.7766 28.4448 42.6281 28.9008 42.4952 29.436C42.3607 29.9719 42.2539 30.5346 42.1732 31.1234C42.0929 31.7138 42.1054 32.249 42.2132 32.731H42.4549ZM43.2594 31.0433C43.6881 29.865 44.1445 28.7125 44.6267 27.5872C45.0557 26.6228 45.4719 25.6054 45.8742 24.5328C46.2761 23.4617 46.6911 22.5234 47.1213 21.7198L47.9258 20.1123L47.6843 19.9517C47.576 20.1123 47.4555 20.327 47.3223 20.5947C47.1876 20.8632 47.0406 21.1849 46.8798 21.5592C46.5579 22.2023 46.1959 22.9392 45.7939 23.7693C45.3915 24.6007 45.0017 25.4573 44.6267 26.3411C44.251 27.2254 43.9158 28.083 43.6213 28.9128C43.3258 29.7442 43.1246 30.4536 43.0179 31.043H43.2594V31.0433ZM44.3053 34.0972C44.6267 34.0972 44.9752 33.9904 45.3512 33.7753L45.1902 33.5346C45.082 33.5885 45.0015 33.6145 44.9485 33.6145C44.8405 33.6687 44.7075 33.6949 44.5463 33.6949C44.2245 33.6949 44.0098 33.5883 43.9031 33.3735L43.6616 32.8114V33.3735C43.6616 33.4817 43.7021 33.6287 43.7823 33.8155C43.8628 34.0044 44.036 34.0972 44.3053 34.0972ZM47.7645 21.72L47.2821 22.5237C47.0131 23.1138 46.7856 23.609 46.5981 24.0111C46.4096 24.4126 46.2084 24.828 45.9947 25.2565C45.7797 25.686 45.6189 26.0601 45.5122 26.382L45.7534 26.4624C46.1279 25.7665 46.4234 25.1901 46.6384 24.734C46.8521 24.2796 47.0531 23.8497 47.2418 23.4482C47.429 23.0461 47.5235 22.7647 47.5235 22.6043L47.7645 21.72ZM46.7993 17.4601C46.6384 17.4601 46.5306 17.4876 46.4776 17.5405V17.8619C46.5306 17.8093 46.6108 17.7815 46.7189 17.7815C47.3083 17.7815 47.8315 17.9159 48.2877 18.1836C48.7429 18.4521 49.0517 18.6661 49.2127 18.8264L49.2932 18.9065H49.4539V18.8264C49.4539 18.7198 49.4266 18.6661 49.3734 18.6661L49.2932 18.5857C49.0239 18.3177 48.7024 18.063 48.3277 17.822C47.9518 17.581 47.6563 17.4604 47.4425 17.4604H46.7993V17.4601Z" fill="#95AE3C"/>
<path d="M45.7527 37.4727C46.0215 36.7217 46.3154 36.0527 46.6377 35.4636C46.9067 34.8206 47.3351 33.8434 47.9248 32.53C48.5156 31.2172 49.1593 29.7975 49.8557 28.2704C50.5534 26.7427 51.2496 25.2161 51.9473 23.689C52.6437 22.1619 53.2345 20.8633 53.7174 19.791H50.3382C50.4462 19.3627 50.6072 18.9873 50.8209 18.6659C50.9819 18.398 51.1831 18.1308 51.4243 17.8618C51.6658 17.5943 52.0003 17.46 52.43 17.46H54.7631C56.2115 14.2452 57.3239 11.6732 58.1021 9.7445C58.8785 7.81557 59.482 6.39636 59.912 5.48457C60.1254 5.00234 60.3407 4.43995 60.5559 3.79689C60.7694 3.15383 60.9301 2.53851 61.0384 1.94812V1.78755L61.2791 1.62646C61.5481 1.62646 61.7623 1.70713 61.9233 1.86771C62.2453 2.08223 62.6195 2.34994 63.0498 2.67134C63.4785 2.993 63.8542 3.36835 64.1759 3.79664C64.4976 4.22619 64.7254 4.68069 64.8601 5.16266C64.9934 5.64489 64.9266 6.12764 64.6589 6.60961C64.5509 6.77019 64.4579 6.95901 64.3774 7.17226C64.2969 7.38704 64.1219 7.76239 63.8544 8.29755C63.6395 8.72711 63.1305 9.81219 62.3256 11.5528C61.5211 13.2944 60.6087 15.2638 59.5903 17.46H62.6478C62.4325 17.8895 62.2178 18.2638 62.0038 18.5853C61.7886 18.854 61.5481 19.1214 61.2791 19.3889C61.0104 19.6579 60.7162 19.791 60.3947 19.791H58.4636C58.4098 19.8447 58.3833 19.8986 58.3833 19.9515C58.2751 20.8633 58.0878 22.2696 57.8204 24.1713C57.5514 26.0737 57.2169 28.1095 56.8147 30.2794C56.4125 32.4496 55.9298 34.5666 55.3663 36.6289C54.8033 38.6911 54.1999 40.3124 53.5562 41.4914C52.9655 42.5622 52.3355 43.3396 51.6658 43.8219C50.9961 44.3044 50.3659 44.598 49.7752 44.7062C49.0788 44.8668 48.3811 44.8388 47.6836 44.6258L47.7638 44.7062H47.6836L47.5226 44.5454C47.3086 44.4914 46.7179 44.224 45.7527 43.7415C45.217 43.4198 44.8953 42.9643 44.7871 42.3752C44.6803 41.8932 44.6541 41.3835 44.7068 40.8483C44.7608 40.3124 44.8676 39.8035 45.0285 39.3215C45.1895 38.839 45.338 38.4234 45.4713 38.0756C45.6053 37.7267 45.6998 37.5251 45.7527 37.4727ZM49.4535 32.2488C49.0245 33.2133 48.5961 34.177 48.1663 35.1425C47.7916 35.9459 47.4296 36.7762 47.0804 37.6333C46.7322 38.4904 46.4505 39.2411 46.2355 39.8841L46.4772 39.9643C46.5312 39.9101 46.7182 39.5625 47.0402 38.9197C47.3621 38.2769 47.7114 37.5534 48.0861 36.7497C48.4621 35.9461 48.8103 35.1285 49.1318 34.2981C49.4537 33.468 49.6425 32.8117 49.6952 32.3295L49.8562 31.4452L49.4535 32.2488ZM51.9475 39.8035C52.4303 38.785 52.859 37.6055 53.2347 36.2673C53.6097 34.9274 53.9452 33.6146 54.2404 32.3292C54.5346 31.0431 54.7758 29.8514 54.9643 28.7521C55.1516 27.6545 55.2988 26.7832 55.4071 26.1401C54.9771 26.9977 54.6026 27.7754 54.2806 28.4709C53.9589 29.1679 53.6634 29.7845 53.3957 30.3194C53.1267 30.9095 52.8855 31.4719 52.6715 32.0073C52.0278 33.4543 51.4108 34.8206 50.8209 36.1064C50.3382 37.1775 49.8557 38.2626 49.3727 39.3617C48.89 40.459 48.5683 41.3028 48.4073 41.8932V41.9734C48.3548 42.026 48.3268 42.1065 48.3268 42.2144C48.2743 42.3749 48.2743 42.508 48.3268 42.6159C48.3268 42.9376 48.4878 43.0984 48.8098 43.0984C48.9705 43.1513 49.1312 43.1513 49.2925 43.0984C49.7755 43.0445 50.2314 42.7228 50.6604 42.1339C51.0889 41.5441 51.5176 40.7682 51.9475 39.8035ZM48.4076 37.5531C48.3006 37.66 48.3271 37.714 48.488 37.714C48.5421 37.714 48.5961 37.6865 48.6488 37.6333C48.6488 37.4185 48.7028 37.1513 48.8098 36.8297L54.1199 24.2115C54.2266 24.0506 54.3209 23.9041 54.4014 23.7694C54.4816 23.6366 54.5481 23.5157 54.6026 23.4081L54.7633 23.0862C54.7633 22.9798 54.7358 22.9253 54.6831 22.9253H54.5221C53.5564 24.8018 52.7382 26.4498 52.0683 27.868C51.3971 29.289 50.7144 30.8561 50.0169 32.5702C49.3203 34.2854 48.7835 35.9459 48.4076 37.5531ZM52.43 41.5721L52.1083 41.8935C51.8393 42.1609 51.4648 42.4961 50.9819 42.8979C50.4991 43.2997 50.1247 43.5007 49.8557 43.5007V43.8221C49.9094 43.7679 50.2579 43.6476 50.9016 43.4608C51.5451 43.272 52.0003 42.8037 52.2693 42.0543L52.43 41.5721ZM51.9475 18.8262C52.0543 18.8262 52.4028 18.8402 52.9935 18.8664C53.5829 18.8939 54.1724 18.9064 54.7633 18.9064C55.621 18.9064 56.278 18.8939 56.7347 18.8664C57.1897 18.84 57.5254 18.8135 57.7404 18.7863C57.9541 18.7601 58.0746 18.7334 58.1026 18.7059C58.1289 18.6797 58.1429 18.6395 58.1429 18.5855C58.1429 18.4791 57.9276 18.3982 57.4989 18.3443C57.2302 18.2913 56.9359 18.2641 56.614 18.2641C56.2922 18.2641 55.9705 18.2641 55.6485 18.2641C55.1118 18.2641 54.6291 18.2776 54.2004 18.3041C53.7704 18.3315 53.396 18.372 53.074 18.4247C52.6982 18.4791 52.3225 18.5326 51.9478 18.5855L51.2236 18.6659L51.9475 18.8262ZM51.7866 27.3456L52.2693 26.3012C52.2693 26.2483 52.39 26.0073 52.6312 25.5777C52.8727 25.1495 53.1267 24.6408 53.3957 24.0506C53.6634 23.4618 53.9187 22.8587 54.1599 22.2423C54.4014 21.6267 54.5481 21.1572 54.6026 20.8356L54.6829 20.1124L54.3611 20.7554C54.3611 20.8096 54.2529 21.0506 54.0391 21.4789C53.8244 21.9082 53.5969 22.4032 53.3552 22.965C53.114 23.5279 52.8587 24.1183 52.591 24.7336C52.3223 25.35 52.1345 25.8462 52.0278 26.2205L51.7866 27.3456ZM57.2572 16.4955C57.2572 16.6034 57.2837 16.6563 57.3379 16.6563C57.3906 16.6563 57.4446 16.6299 57.4987 16.5759C57.6054 16.1476 57.6861 15.8524 57.7401 15.6914L61.6824 6.28821C61.7888 6.12764 61.8836 5.96655 61.9641 5.80572C62.0441 5.64464 62.1108 5.51206 62.1648 5.40391C62.2178 5.24308 62.2718 5.13645 62.3256 5.08225C62.3256 4.97562 62.2986 4.92193 62.2456 4.92193L62.0843 5.00209C61.3869 6.23502 60.7432 7.5214 60.1537 8.85994C59.617 9.98524 59.0673 11.2312 58.5043 12.5974C57.9411 13.964 57.5251 15.2638 57.2572 16.4955ZM61.9236 7.33334L61.6016 8.05631C61.0651 9.1816 60.6222 10.1463 60.2737 10.95C59.9247 11.7536 59.5627 12.5847 59.188 13.4415C58.8123 14.2991 58.5446 15.0488 58.3836 15.6916L58.6251 15.8527C58.6251 15.7998 58.7858 15.4509 59.1075 14.8078C59.4295 14.165 59.7775 13.4291 60.1535 12.5974C60.5279 11.7673 60.8771 10.9375 61.1989 10.1059C61.5209 9.27576 61.7348 8.61896 61.8426 8.13672L61.9236 7.33334ZM62.3256 3.55565L63.211 4.19896L63.2912 4.27912C63.4522 4.4939 63.5449 4.89572 63.5727 5.48457C63.599 6.07496 63.6127 6.52971 63.6127 6.85086L63.5322 7.4135L63.8544 6.85086C64.2289 6.10117 64.2967 5.48457 64.0552 5.00234C63.8142 4.52011 63.613 4.22619 63.4522 4.11855L63.2912 3.95746L62.3256 3.55565Z" fill="#2D2C6E"/>
<path d="M60.3939 25.0149C61.0898 23.8899 61.8683 22.8183 62.727 21.8002C63.5839 20.783 64.4163 19.9249 65.221 19.2279C66.0255 18.5324 66.7897 18.0362 67.5139 17.7413C68.2378 17.4476 68.8413 17.4601 69.3237 17.7815C69.8062 18.1029 70.2494 18.4118 70.6516 18.7057C71.0536 19.0009 71.3886 19.2559 71.6571 19.4692C71.979 19.6839 72.273 19.8985 72.542 20.112C72.649 19.7906 72.7832 19.4966 72.9442 19.2277C73.051 18.9605 73.1452 18.6925 73.2257 18.424C73.3062 18.1566 73.3467 17.9153 73.3467 17.7005C73.3467 17.6479 73.3732 17.5939 73.4269 17.54L73.5877 17.3794C73.7487 17.3794 73.9624 17.4596 74.2314 17.6204C74.5531 17.7812 74.9013 18.0222 75.2768 18.3439C75.6515 18.6658 76.0015 19.0271 76.323 19.4289C76.645 19.831 76.8582 20.2466 76.9664 20.6749C77.0729 21.1044 76.9927 21.5592 76.7252 22.0411C76.4035 22.6313 75.9335 23.542 75.3173 24.7737C74.7001 26.0071 74.0969 27.2526 73.5072 28.5114C72.9167 29.7708 72.4335 30.8961 72.059 31.8868C71.6831 32.879 71.5763 33.4279 71.7371 33.5348C71.8438 33.643 72.1395 33.5223 72.622 33.1729C73.105 32.8253 73.6544 32.3693 74.2714 31.8067C74.8873 31.2445 75.478 30.6549 76.0415 30.0388C76.6047 29.4237 77.0469 28.9008 77.3686 28.4715C77.3686 28.4186 77.4216 28.3646 77.5299 28.3107C77.6906 28.1498 77.8516 28.1236 78.0126 28.2305C78.1193 28.2845 78.2263 28.4313 78.3348 28.6725C78.4416 28.9133 78.2538 29.3293 77.7714 29.9184C76.8584 31.0437 75.9472 32.0222 75.0356 32.852C74.1236 33.6832 73.5339 34.2321 73.2662 34.4993C72.5145 35.0347 71.8988 35.3434 71.4153 35.4238C70.9326 35.5039 70.5571 35.5167 70.2892 35.4642C69.3237 35.3032 68.72 34.8741 68.479 34.1773C68.2378 33.4824 68.1703 32.6785 68.2783 31.7664C68.385 30.8564 68.64 29.8917 69.0423 28.8731C69.4445 27.8562 69.8064 26.9719 70.1284 26.2209C69.5375 26.9179 68.8538 27.7081 68.0771 28.5921C67.2989 29.4759 66.5207 30.3337 65.744 31.1638C64.9661 31.9952 64.2678 32.7452 63.6522 33.4142C63.0352 34.0847 62.6467 34.5265 62.4855 34.74C62.1635 35.1146 61.5471 35.1688 60.6351 34.9011C59.7237 34.6336 59.026 34.2056 58.5433 33.6147C58.0606 33.0798 57.9273 32.0352 58.1408 30.4806C58.356 28.927 59.1067 27.105 60.3939 25.0149ZM64.4163 21.8803C64.3621 21.9343 64.0944 22.2419 63.6116 22.8046C63.1292 23.3672 62.6062 24.0904 62.0433 24.9745C61.4801 25.8583 60.9566 26.8235 60.4746 27.8676C59.9917 28.9125 59.7239 29.9177 59.6699 30.8819V31.7659L59.9112 30.9623C60.3412 29.8375 60.7556 28.8601 61.1581 28.0292C61.5608 27.1991 62.056 26.2611 62.647 25.216C63.2362 24.1714 63.9061 23.1132 64.6583 22.0409L64.4163 21.8803ZM61.3591 34.2575C61.7343 34.2575 62.2165 33.9364 62.8077 33.2933L62.5662 33.1325C62.4582 33.2406 62.3247 33.3472 62.1638 33.4541C61.842 33.6687 61.5473 33.7753 61.2783 33.7753C61.1178 33.7753 60.9836 33.7231 60.8763 33.6145L60.4746 33.3737L60.6354 33.7753C60.6354 33.8297 60.6894 33.9239 60.7961 34.0567C60.9026 34.1911 61.0901 34.2575 61.3591 34.2575ZM65.0603 22.1213C65.0603 22.1755 64.9393 22.3628 64.6983 22.6842C64.4571 23.0056 64.2016 23.395 63.9336 23.8494C63.6646 24.3057 63.3704 24.7877 63.0487 25.2964C62.727 25.8066 62.4855 26.2481 62.3245 26.6227L61.9225 27.6671L62.566 26.783C62.566 26.7301 62.6867 26.5293 62.928 26.1799C63.1692 25.8323 63.4512 25.4168 63.7726 24.9343C64.0944 24.452 64.4023 23.9703 64.6981 23.4878C64.992 23.0053 65.193 22.6035 65.3013 22.2821L65.5425 21.4785L65.0603 22.1213ZM63.2899 31.1231C63.7729 30.8017 64.4831 30.1187 65.4223 29.0733C66.3599 28.029 67.2851 26.9441 68.1976 25.8188C69.2702 24.48 70.4504 23.0596 71.7376 21.5589C70.9859 21.0767 70.2494 20.9963 69.5247 21.3177C68.8005 21.6393 68.1973 22.0951 67.7149 22.6839C67.2321 23.2741 66.4939 24.265 65.5023 25.6575C64.5096 27.0518 63.6644 28.4985 62.9679 29.9981C62.6989 30.4803 62.606 30.8155 62.6867 31.0028C62.767 31.1911 62.8604 31.2837 62.9679 31.2837C63.0749 31.2837 63.1552 31.2575 63.2094 31.2038C63.2627 31.2035 63.2899 31.1771 63.2899 31.1231ZM68.2786 18.3439C68.0093 18.3439 67.7556 18.4115 67.5141 18.5451C67.2729 18.6795 67.0439 18.7999 66.8297 18.9065C66.6149 19.1215 66.3737 19.3086 66.106 19.4692L66.267 19.7101C66.8567 19.2821 67.4739 19.0673 68.1173 19.0673C68.4923 19.0673 68.8278 19.1213 69.123 19.2279C69.417 19.3361 69.6722 19.4427 69.8872 19.5496C69.9942 19.6577 70.1012 19.7101 70.2092 19.7101L70.2894 19.7908L70.4504 19.63C70.3969 19.63 70.3424 19.6035 70.2894 19.5498C70.1812 19.4429 70.0744 19.3628 69.9674 19.3086C69.8592 19.202 69.6984 19.0816 69.4847 18.947C69.27 18.8139 69.0547 18.666 68.8413 18.5049C68.6263 18.3978 68.4393 18.3439 68.2786 18.3439ZM69.726 32.0876C69.8872 31.6054 70.0744 31.1231 70.2894 30.6409C70.4504 30.2126 70.6114 29.7568 70.7724 29.2749C70.9329 28.7924 71.0661 28.3374 71.1744 27.9081L71.4153 26.8637L70.9326 27.9081C70.7721 28.2839 70.5166 28.9128 70.1689 29.7973C69.8192 30.6814 69.5915 31.4186 69.4845 32.0074L69.404 32.8116L69.726 32.0876ZM72.1403 33.8557C72.086 33.9096 72.0055 33.9636 71.8991 34.0165C71.6838 34.1247 71.4963 34.1768 71.3353 34.1768C71.0136 34.1768 70.7726 33.9366 70.6114 33.4541L70.4504 32.7307L70.3699 33.4541V33.8557C70.3699 34.1247 70.4504 34.3382 70.6114 34.4985C70.7181 34.6064 70.8794 34.6598 71.0944 34.6598C71.3618 34.6598 71.7643 34.4461 72.3013 34.0165L72.2208 33.9366L72.3013 34.0165L72.2208 33.9366L72.1403 33.8557ZM73.5879 23.5682C73.1579 24.3192 72.7835 25.0951 72.4618 25.8987C72.14 26.5957 71.8305 27.3594 71.5363 28.1895C71.2411 29.0212 70.9594 29.8375 70.6922 30.6409L70.9329 30.7213C71.3081 29.9177 71.6436 29.1945 71.9383 28.5509C72.2325 27.9081 72.542 27.1724 72.8637 26.3408C73.186 25.5109 73.5074 24.6129 73.8292 23.6484L73.5879 23.5682Z" fill="#2D2C6E"/>
<path d="M92.6541 27.5872C92.7609 27.6412 92.8821 27.788 93.0159 28.0293C93.1493 28.2702 92.9764 28.6856 92.4929 29.2752C91.581 30.3997 90.6693 31.3784 89.7584 32.2083C88.8454 33.0399 88.256 33.5885 87.9877 33.856C87.2363 34.3922 86.6063 34.6998 86.0974 34.7803C85.5869 34.8607 85.1984 34.8736 84.931 34.8207C84.4477 34.8207 84.058 34.6871 83.764 34.4186C83.4686 34.1512 83.2536 33.8033 83.1211 33.374C82.9861 32.946 82.9196 32.504 82.9196 32.0479C82.9196 31.5932 82.9458 31.1514 82.9998 30.7219C82.9998 30.615 83.0263 30.4539 83.0801 30.2394C83.1333 30.0259 83.1871 29.8111 83.2408 29.5968C83.2938 29.3831 83.3481 29.1683 83.4021 28.9533V29.0339C83.6698 28.017 84.0455 26.8778 84.529 25.6181C85.0112 24.36 85.6811 22.9255 86.5401 21.3182C86.5928 21.1047 86.7008 20.8899 86.8616 20.6752C86.9688 20.4619 87.1036 20.2329 87.2643 19.9921C87.425 19.7506 87.5858 19.4972 87.7473 19.2282C87.2103 19.3364 86.7011 19.4168 86.2184 19.4695C85.7354 19.5234 85.2792 19.5776 84.8507 19.63C84.5815 19.6842 84.3405 19.7102 84.1263 19.7102C83.9113 19.7102 83.67 19.7382 83.4023 19.7909C83.0263 21.1307 82.5701 22.3626 82.0344 23.4881C81.4982 24.6132 80.9482 25.6178 80.3853 26.5024C79.8223 27.3862 79.2716 28.1496 78.7359 28.7927C78.2002 29.4357 77.7707 29.9452 77.4487 30.3195C77.1268 30.6412 76.8855 30.7491 76.7245 30.6412C76.6178 30.6412 76.5108 30.5885 76.4023 30.4804C76.1891 30.2669 76.1351 30.0786 76.2416 29.918C76.2416 29.8111 76.2958 29.7042 76.4023 29.5966C76.9933 28.953 77.8647 27.8282 79.0169 26.2204C80.1698 24.6132 81.1495 22.5776 81.9537 20.1123C82.0069 20.0596 82.0339 19.9792 82.0339 19.8713H81.9537C81.7392 19.925 81.4837 19.9654 81.1897 19.9919C80.8942 20.0191 80.586 20.0054 80.2645 19.9514C79.7278 19.8985 79.2589 19.7644 78.8561 19.5496C78.4547 19.3361 78.2264 18.9608 78.1727 18.4243C78.1727 17.6204 78.3337 16.9512 78.6552 16.415C78.9771 15.8798 79.3521 15.4505 79.7818 15.1289C80.2103 14.8075 80.653 14.5802 81.1092 14.4458C81.5642 14.3128 81.8999 14.2183 82.1149 14.1646H82.1952C82.7309 14.0578 83.1466 14.1117 83.4423 14.3252C83.7363 14.5403 83.9373 14.8075 84.0455 15.1289C84.2068 15.5045 84.2592 15.9327 84.2068 16.415C84.2068 16.6837 84.1522 17.0853 84.0455 17.6204L83.9653 18.1027C84.931 17.9958 85.8964 17.809 86.8613 17.5403C87.827 17.2728 88.4972 17.0853 88.8727 16.9779H89.0337H89.4361C89.7036 17.0855 90.0518 17.2469 90.4815 17.4601C90.9105 17.6749 91.2985 17.9423 91.6485 18.264C91.9962 18.5854 92.2514 18.9343 92.4124 19.3086C92.5737 19.6842 92.5459 20.0863 92.3322 20.5141C91.9562 21.2108 91.327 22.2964 90.4416 23.7693C89.5566 25.2438 88.7649 26.7571 88.068 28.3105C87.9605 28.5252 87.7992 28.9006 87.5853 29.436C87.1553 30.3473 86.8208 31.1234 86.5798 31.7662C86.3383 32.4096 86.2706 32.7846 86.3786 32.8918C86.5398 32.8918 86.6726 32.8653 86.7806 32.8119C87.0493 32.7047 87.4245 32.4635 87.907 32.0879C88.3899 31.7138 88.8851 31.2718 89.3956 30.7618C89.9048 30.2531 90.4143 29.7309 90.9245 29.195C91.4332 28.6596 91.8217 28.2038 92.0909 27.8285L92.2517 27.6674C92.3587 27.5605 92.4929 27.5346 92.6541 27.5872ZM79.2186 17.0585C79.2186 17.0056 79.3521 16.7773 79.6206 16.3755C79.8886 15.9735 80.3173 15.5854 80.908 15.2098L81.8737 14.6474L80.747 15.0492C80.4253 15.1574 80.1563 15.3179 79.9426 15.5314C79.7278 15.6918 79.5263 15.893 79.3394 16.134C79.1509 16.3755 79.0296 16.6567 78.9771 16.9781L78.8971 17.7014L79.2186 17.0585ZM82.1149 19.2282C82.7044 19.2282 83.2011 19.2157 83.603 19.1883C84.0053 19.162 84.2068 19.1218 84.2068 19.0676V18.8264C84.0982 18.8806 83.9653 18.9065 83.8043 18.9065H82.8389C81.2824 18.9065 80.3175 18.6394 79.9426 18.1029C79.7818 17.8355 79.8086 17.4601 80.0225 16.9779L79.7818 16.8975C79.6736 17.0583 79.5933 17.2469 79.5403 17.4601C79.4866 17.6207 79.4461 17.8092 79.4196 18.0225C79.3921 18.2373 79.4323 18.4246 79.5403 18.5854C79.7013 18.9065 80.0495 19.0949 80.586 19.1478C80.8537 19.202 81.1092 19.228 81.3507 19.228C81.5917 19.2282 81.8457 19.2282 82.1149 19.2282ZM82.1952 15.5314C82.0871 15.6393 81.9537 15.8002 81.7929 16.0134C81.6322 16.2284 81.4837 16.4694 81.3507 16.7369C81.216 17.0056 81.1495 17.2596 81.1495 17.5003C81.1495 17.7416 81.2297 17.9161 81.391 18.0228C81.7129 18.2375 82.1149 18.3177 82.5974 18.2643C82.8656 17.2471 82.9721 16.5763 82.9193 16.2549C82.9193 16.0414 82.8656 15.8406 82.7584 15.6521C82.6498 15.4648 82.4631 15.4246 82.1952 15.5314ZM84.2867 32.731C84.2867 32.3024 84.3132 31.8204 84.3672 31.2838C84.42 30.856 84.5142 30.3195 84.6487 29.6767C84.7819 29.0339 84.9832 28.3105 85.2519 27.5068L85.0107 27.4267C85.0107 27.4806 84.9307 27.6956 84.77 28.0692C84.609 28.4448 84.4605 28.9008 84.3275 29.436C84.193 29.9719 84.086 30.5346 84.005 31.1234C83.9248 31.7138 83.937 32.249 84.0453 32.731H84.2867ZM85.0914 31.0433C85.5204 29.865 85.9766 28.7125 86.4588 27.5872C86.8878 26.6228 87.304 25.6054 87.7063 24.5328C88.1085 23.4617 88.5232 22.5234 88.9532 21.7198L89.7581 20.1123L89.5164 19.9517C89.4081 20.1123 89.2874 20.327 89.1544 20.5947C89.0199 20.8632 88.8727 21.1849 88.7117 21.5592C88.39 22.2023 88.028 22.9392 87.6258 23.7693C87.2233 24.6007 86.8338 25.4573 86.4588 26.3411C86.0831 27.2254 85.7476 28.083 85.4537 28.9128C85.1582 29.7442 84.9569 30.4536 84.8502 31.043H85.0914V31.0433ZM86.1376 34.0972C86.4591 34.0972 86.8076 33.9904 87.1833 33.7753L87.0223 33.5346C86.9138 33.5885 86.8338 33.6145 86.7806 33.6145C86.6726 33.6687 86.5398 33.6949 86.3786 33.6949C86.0569 33.6949 85.8424 33.5883 85.7351 33.3735L85.4939 32.8114V33.3735C85.4939 33.4817 85.5344 33.6287 85.6149 33.8155C85.6952 34.0044 85.8681 34.0972 86.1376 34.0972ZM89.5969 21.72L89.1139 22.5237C88.8452 23.1138 88.6179 23.609 88.4302 24.0111C88.2417 24.4126 88.0407 24.828 87.8267 25.2565C87.612 25.686 87.451 26.0601 87.344 26.382L87.585 26.4624C87.9602 25.7665 88.2555 25.1901 88.4702 24.734C88.6842 24.2796 88.8849 23.8497 89.0736 23.4482C89.2611 23.0461 89.3554 22.7647 89.3554 22.6043L89.5969 21.72ZM88.6314 17.4601C88.4704 17.4601 88.3627 17.4876 88.31 17.5405V17.8619C88.3627 17.8093 88.4429 17.7815 88.5507 17.7815C89.1404 17.7815 89.6636 17.9159 90.1196 18.1836C90.5753 18.4521 90.884 18.6661 91.0448 18.8264L91.125 18.9065H91.286V18.8264C91.286 18.7198 91.2585 18.6661 91.2057 18.6661L91.1252 18.5857C90.8565 18.3177 90.5348 18.063 90.1603 17.822C89.7838 17.581 89.4886 17.4604 89.2751 17.4604H88.6314V17.4601Z" fill="#2D2C6E"/>
<path d="M110.997 34.6599C110.245 34.2853 109.83 33.6684 109.749 32.8114C109.669 31.954 109.763 31.0163 110.031 29.9979C110.245 28.9268 110.635 27.6407 111.198 26.14C111.761 24.6404 112.577 22.8988 113.652 20.9156C112.417 22.2557 111.184 23.7024 109.95 25.2557C108.877 26.5958 107.738 28.1091 106.531 29.7971C105.325 31.4848 104.211 33.2129 103.193 34.981C102.389 34.9271 101.691 34.7395 101.101 34.4181C100.618 34.1507 100.243 33.6822 99.9751 33.0121C99.7051 32.3424 99.7861 31.3916 100.216 30.1587C100.269 29.9979 100.349 29.7706 100.457 29.4752C100.564 29.1815 100.685 28.8459 100.819 28.4708C100.952 28.0967 101.087 27.761 101.222 27.4661C101.354 27.1724 101.449 26.9439 101.503 26.7828C102.092 25.0689 103.004 23.113 104.238 20.9156C103.004 22.2557 101.77 23.7024 100.537 25.2557C99.4642 26.5958 98.325 28.1091 97.1183 29.7971C95.9117 31.4848 94.7977 33.2129 93.7793 34.981C92.9754 34.9271 92.2784 34.7395 91.6875 34.4181C91.205 34.1507 90.8306 33.6822 90.5613 33.0121C90.2936 32.3424 90.3738 31.3916 90.803 30.1587C91.2328 28.6054 91.9162 27.0118 92.8541 25.3766C93.7926 23.7426 94.5568 22.1753 95.1472 20.6746C95.415 19.9789 95.6699 19.3361 95.9117 18.7457C96.1532 18.1566 96.3264 17.5138 96.4349 16.8165V16.7361V16.6559C96.4349 16.5491 96.5151 16.4951 96.6759 16.4951C96.7286 16.4951 96.9438 16.5491 97.3191 16.6559C97.4798 16.8165 97.6133 16.9244 97.7218 16.9773C98.0435 17.1919 98.3777 17.4596 98.727 17.781C99.0757 18.1024 99.3834 18.4378 99.6524 18.7859C99.9204 19.1351 100.107 19.5229 100.215 19.9512C100.323 20.3807 100.296 20.809 100.135 21.237C99.5447 22.4705 98.8747 23.636 98.1238 24.7333C97.3723 25.8318 96.5414 26.9973 95.6302 28.2295C96.9703 26.5154 98.3105 24.9341 99.6524 23.4876C100.779 22.2554 101.958 21.0095 103.193 19.7499C104.426 18.4915 105.525 17.5397 106.491 16.8967C107.295 17.2723 107.992 17.6476 108.583 18.0217C109.065 18.3434 109.44 18.7325 109.709 19.1872C109.977 19.6432 109.977 20.1115 109.709 20.594C109.387 21.1841 108.876 22.0681 108.181 23.2461C107.482 24.4254 106.813 25.657 106.169 26.9434C106.704 26.3003 107.376 25.5104 108.181 24.5722C108.985 23.6355 109.842 22.671 110.755 21.679C111.666 20.6881 112.577 19.7639 113.49 18.906C114.401 18.0497 115.232 17.3792 115.984 16.8967C116.734 17.2723 117.405 17.6476 117.995 18.0217C118.478 18.3434 118.867 18.7325 119.163 19.1872C119.456 19.6432 119.47 20.1115 119.202 20.594C118.772 21.2907 118.116 22.3756 117.231 23.8487C116.346 25.3234 115.582 26.8365 114.939 28.3898C114.723 28.7117 114.562 29.0871 114.456 29.5151C114.026 30.4269 113.691 31.2031 113.45 31.8459C113.209 32.4892 113.14 32.8643 113.249 32.9714C113.356 32.9714 113.463 32.945 113.57 32.891C113.838 32.7839 114.227 32.5431 114.737 32.1673C115.247 31.7932 115.755 31.3512 116.266 30.8415C116.775 30.3328 117.272 29.8103 117.754 29.2744C118.237 28.739 118.612 28.2832 118.881 27.9076C118.881 27.8552 118.934 27.8012 119.042 27.7468C119.203 27.5865 119.364 27.5597 119.524 27.6666C119.631 27.7211 119.738 27.8674 119.846 28.1089C119.953 28.3496 119.766 28.7657 119.283 29.3548C118.371 30.4798 117.459 31.4581 116.548 32.2882C115.636 33.1195 115.046 33.6682 114.778 33.9361C114.026 34.4718 113.41 34.7795 112.927 34.8601C112.444 34.9403 112.069 34.9533 111.801 34.9004H111.721L110.997 34.6599ZM93.8598 34.4184L92.9751 34.0166C92.8136 33.9636 92.6529 33.8557 92.4922 33.6949C92.1175 33.3735 91.8222 32.9997 91.607 32.5699L91.2853 31.8464L91.3655 32.5699C91.3655 32.6241 91.4332 32.8915 91.5667 33.3735C91.7012 33.8557 92.1439 34.1509 92.8941 34.2575L93.8598 34.4184ZM92.3312 32.8915L92.6532 32.1678C92.6532 32.1156 92.8541 31.6329 93.2561 30.7213C93.6588 29.8108 93.9406 28.9003 94.1016 27.9885L94.3425 26.9442L93.8596 27.9081V27.9885C93.6986 28.3102 93.4441 28.927 93.0954 29.8376C92.7472 30.7491 92.5194 31.4988 92.4114 32.0876L92.3312 32.8915ZM96.5151 23.6487C96.0852 24.3454 95.7104 25.0954 95.3885 25.899C95.0665 26.596 94.7575 27.3597 94.463 28.1898C94.168 29.0214 93.8863 29.8378 93.6188 30.6412L93.8598 30.7216C94.1818 30.0785 94.5035 29.3828 94.8253 28.6318C95.0932 27.9888 95.4009 27.2526 95.7512 26.4215C96.0989 25.5911 96.4349 24.6936 96.7566 23.7291L96.5151 23.6487ZM96.7566 21.3177C96.5414 21.8539 96.3541 22.3096 96.1932 22.684C96.0322 23.0596 95.8709 23.4477 95.7102 23.8492C95.5492 24.251 95.3882 24.6129 95.2275 24.9343L95.3882 25.0147C95.7102 24.4798 95.9642 24.0238 96.1529 23.6484C96.3396 23.2741 96.5149 22.885 96.6756 22.4832C96.8364 22.0811 96.9436 21.7195 96.9976 21.3981L97.0781 20.5945L96.7566 21.3177ZM98.446 26.3011L97.6416 27.1851C97.4798 27.3457 97.3056 27.547 97.1183 27.788C96.9298 28.0292 96.7566 28.284 96.5954 28.5512C96.3804 28.8202 96.1651 29.0879 95.9517 29.3553L95.6302 29.7571L96.1124 29.5159C96.5416 29.3024 96.9298 28.9006 97.2793 28.3104C97.6273 27.7218 97.8285 27.3999 97.8828 27.3457L98.446 26.3011ZM97.7218 18.8261L98.2848 19.2279C98.9287 19.6577 99.2227 20.1397 99.1702 20.6749C99.1159 21.2108 99.0897 21.5063 99.0897 21.5592L99.3309 21.6396C99.6527 20.9965 99.7051 20.4339 99.4919 19.9517C99.3837 19.5776 99.1827 19.3363 98.888 19.2282C98.593 19.1218 98.4185 19.0676 98.3655 19.0676L97.7218 18.8261ZM103.433 34.4184L102.549 34.0166C102.388 33.9636 102.227 33.8557 102.066 33.6949C101.69 33.3735 101.395 32.9997 101.181 32.5699L100.939 31.8464V32.5699C100.939 32.6241 101.006 32.8915 101.141 33.3735C101.274 33.8557 101.717 34.1509 102.468 34.2575L103.433 34.4184ZM101.825 32.2487L102.227 31.525C102.388 31.097 102.575 30.6409 102.79 30.159C102.951 29.7307 103.112 29.2749 103.273 28.7927C103.434 28.3102 103.567 27.8282 103.675 27.3455L103.836 26.3011L103.434 27.2653L103.354 27.4264C103.3 27.5872 103.206 27.8282 103.072 28.1496C102.938 28.4713 102.791 28.8329 102.63 29.2352C102.469 29.6368 102.334 30.0386 102.227 30.4404C102.119 30.8422 102.039 31.1774 101.986 31.4451L101.825 32.2487ZM106.089 23.0054C105.659 23.8635 105.297 24.6406 105.003 25.3361C104.707 26.0331 104.385 26.7971 104.037 27.6272C103.688 28.4585 103.406 29.2749 103.193 30.0783L103.433 30.1587C103.756 29.5156 104.078 28.8196 104.399 28.0687C104.667 27.4261 104.963 26.6759 105.285 25.8186C105.606 24.9618 105.928 24.0503 106.25 23.0858L106.089 23.0054ZM106.25 20.7553C106.089 21.1849 105.9 21.6131 105.687 22.0412C105.525 22.4168 105.364 22.8049 105.204 23.2064C105.043 23.6087 104.882 23.9706 104.721 24.292L104.962 24.4526C105.284 23.9177 105.538 23.4617 105.726 23.0863C105.914 22.7117 106.089 22.3229 106.249 21.9208C106.411 21.519 106.491 21.1574 106.491 20.8357L106.571 19.9517L106.25 20.7553ZM113.893 19.4692L113.088 20.2731C112.927 20.4336 112.752 20.6347 112.565 20.8759C112.377 21.1169 112.175 21.3457 111.962 21.5592C111.747 21.8279 111.532 22.0954 111.318 22.3628L110.916 22.7646L111.399 22.5234C111.828 22.3628 112.244 21.9887 112.646 21.3986C113.048 20.8098 113.275 20.4881 113.33 20.4339L113.893 19.4692ZM111.158 32.1678L111.48 31.4448C111.641 30.9623 111.828 30.4801 112.043 29.9979C112.203 29.5693 112.364 29.1136 112.525 28.6316C112.686 28.1491 112.82 27.6949 112.927 27.2651L113.088 26.2204L112.686 27.1849L112.606 27.2651C112.497 27.6409 112.27 28.27 111.922 29.154C111.573 30.0383 111.345 30.775 111.238 31.3644L111.158 32.1678ZM113.169 33.6145L113.249 33.6949L113.169 33.6145C113.115 33.6687 113.034 33.7231 112.927 33.7753C112.712 33.884 112.525 33.9366 112.364 33.9366C112.042 33.9366 111.801 33.6952 111.641 33.2132L111.479 32.49L111.399 33.2132V33.6145C111.399 33.884 111.479 34.097 111.641 34.2575C111.747 34.3654 111.881 34.4184 112.042 34.4184C112.364 34.4184 112.793 34.2051 113.33 33.7753L113.249 33.6952L113.33 33.7753L113.169 33.6145ZM115.341 22.9252C114.911 23.7828 114.549 24.5467 114.255 25.216C113.959 25.8868 113.637 26.6362 113.29 27.4663C112.94 28.298 112.658 29.1141 112.444 29.918L112.686 30.0785C113.061 29.2752 113.396 28.5512 113.691 27.9084C113.986 27.2656 114.295 26.5296 114.617 25.698C114.939 24.8681 115.261 23.9706 115.582 23.0056L115.341 22.9252ZM115.502 20.6749C115.341 21.1044 115.152 21.5327 114.939 21.9608C114.778 22.3361 114.617 22.7242 114.456 23.1257C114.295 23.5278 114.134 23.8899 113.973 24.2113L114.214 24.2918C114.268 24.2391 114.523 23.7973 114.979 22.9649C115.434 22.1353 115.689 21.3719 115.743 20.6746L115.824 19.871L115.502 20.6749ZM116.467 18.1029L117.11 18.5854C117.433 18.7999 117.646 19.0272 117.754 19.2687C117.861 19.5094 117.941 19.7646 117.995 20.0321C117.995 20.3006 117.968 20.5683 117.915 20.8357L118.157 20.9965C118.479 20.2469 118.531 19.658 118.317 19.2282C118.157 18.9068 117.941 18.6798 117.674 18.5454C117.405 18.4118 117.244 18.3441 117.191 18.3441L116.467 18.1029Z" fill="#2D2C6E"/>
</svg>
